<svg width="385.926" height="311.852" xmlns="http://www.w3.org/2000/svg">
 <defs>
  <linearGradient x1="0.499987" y1="0.014258" x2="0.499987" y2="0.985762" id="SVGID_1_">
   <stop offset="0" stop-color="#9DCDE9"/>
   <stop offset="0.7106" stop-color="#fff"/>
   <stop offset="1" stop-color="#FEFEFE"/>
  </linearGradient>
  <linearGradient x1="1.0002" y1="0.500002" x2="0.000514" y2="0.500002" id="SVGID_2_">
   <stop offset="0" stop-color="#EC1C24"/>
   <stop offset="0.021" stop-color="#EC2129"/>
   <stop offset="0.046" stop-color="#EE3037"/>
   <stop offset="0.0731" stop-color="#EF484E"/>
   <stop offset="0.1016" stop-color="#F2696E"/>
   <stop offset="0.1309" stop-color="#F59497"/>
   <stop offset="0.1444" stop-color="#F7AAAC"/>
   <stop offset="0.3596" stop-color="#EC1C24"/>
   <stop offset="0.4391" stop-color="#E71D25"/>
   <stop offset="0.5338" stop-color="#D82028"/>
   <stop offset="0.6363" stop-color="#C1252C"/>
   <stop offset="0.7435" stop-color="#9F2D32"/>
   <stop offset="0.7722" stop-color="#952F34"/>
  </linearGradient>
  <linearGradient x1="0.999849" y1="0.499789" x2="0.000451" y2="0.499789" id="SVGID_3_">
   <stop offset="0" stop-color="#EC1C24"/>
   <stop offset="0.021" stop-color="#EC2129"/>
   <stop offset="0.046" stop-color="#EE3037"/>
   <stop offset="0.0731" stop-color="#EF484E"/>
   <stop offset="0.1016" stop-color="#F2696E"/>
   <stop offset="0.1309" stop-color="#F59497"/>
   <stop offset="0.1444" stop-color="#F7AAAC"/>
   <stop offset="0.3596" stop-color="#EC1C24"/>
   <stop offset="0.4391" stop-color="#E71D25"/>
   <stop offset="0.5338" stop-color="#D82028"/>
   <stop offset="0.6363" stop-color="#C1252C"/>
   <stop offset="0.7435" stop-color="#9F2D32"/>
   <stop offset="0.7722" stop-color="#952F34"/>
  </linearGradient>
  <linearGradient x1="0.499905" y1="0.106262" x2="0.499905" y2="0.890899" id="SVGID_4_">
   <stop offset="0" stop-color="#EC1C24"/>
   <stop offset="0.021" stop-color="#EC2129"/>
   <stop offset="0.046" stop-color="#EE3037"/>
   <stop offset="0.0731" stop-color="#EF484E"/>
   <stop offset="0.1016" stop-color="#F2696E"/>
   <stop offset="0.1309" stop-color="#F59497"/>
   <stop offset="0.1444" stop-color="#F7AAAC"/>
   <stop offset="0.3596" stop-color="#EC1C24"/>
   <stop offset="0.4773" stop-color="#E71D25"/>
   <stop offset="0.6176" stop-color="#D92128"/>
   <stop offset="0.7688" stop-color="#C1272D"/>
   <stop offset="0.7722" stop-color="#C0272D"/>
   <stop offset="0.9944" stop-color="#EC1C24"/>
  </linearGradient>
  <linearGradient x1="0.49972" y1="0.989098" x2="0.49972" y2="0.101426" id="SVGID_5_">
   <stop offset="0" stop-color="#EC1C24"/>
   <stop offset="0.021" stop-color="#EC2129"/>
   <stop offset="0.046" stop-color="#EE3037"/>
   <stop offset="0.0731" stop-color="#EF484E"/>
   <stop offset="0.1016" stop-color="#F2696E"/>
   <stop offset="0.1309" stop-color="#F59497"/>
   <stop offset="0.1444" stop-color="#F7AAAC"/>
   <stop offset="0.3596" stop-color="#EC1C24"/>
   <stop offset="0.4773" stop-color="#E71D25"/>
   <stop offset="0.6176" stop-color="#D92128"/>
   <stop offset="0.7688" stop-color="#C1272D"/>
   <stop offset="0.7722" stop-color="#C0272D"/>
   <stop offset="0.9944" stop-color="#EC1C24"/>
  </linearGradient>
  <linearGradient x1="0.495168" y1="0.984614" x2="0.504166" y2="0.118097" id="SVGID_6_">
   <stop offset="0" stop-color="#EC1C24"/>
   <stop offset="0.376" stop-color="#E91D25"/>
   <stop offset="0.6037" stop-color="#E11F26"/>
   <stop offset="0.7919" stop-color="#D32229"/>
   <stop offset="0.9576" stop-color="#BF272E"/>
   <stop offset="1" stop-color="#B8292F"/>
  </linearGradient>
  <linearGradient x1="1.000347" y1="0.419793" x2="0.002316" y2="0.523766" id="SVGID_7_">
   <stop offset="0" stop-color="#E0E8F5"/>
   <stop offset="0.4" stop-color="#EC1C24"/>
   <stop offset="0.7095" stop-color="#EC1C24"/>
   <stop offset="0.9106" stop-color="#B8292F"/>
   <stop offset="0.9314" stop-color="#BE2F32"/>
   <stop offset="0.9599" stop-color="#CF4139"/>
   <stop offset="0.9926" stop-color="#EA5D45"/>
   <stop offset="1" stop-color="#F16548"/>
  </linearGradient>
  <linearGradient x1="0.996057" y1="0.485441" x2="-0.002389" y2="0.542505" id="SVGID_8_">
   <stop offset="0" stop-color="#E0E8F5"/>
   <stop offset="0.4" stop-color="#EC1C24"/>
   <stop offset="0.7095" stop-color="#EC1C24"/>
   <stop offset="0.9106" stop-color="#B8292F"/>
   <stop offset="0.9314" stop-color="#BE2F32"/>
   <stop offset="0.9599" stop-color="#CF4139"/>
   <stop offset="0.9926" stop-color="#EA5D45"/>
   <stop offset="1" stop-color="#F16548"/>
  </linearGradient>
  <linearGradient x1="0.48916" y1="0.21169" x2="0.627384" y2="0.879174" id="SVGID_9_">
   <stop offset="0.2079" stop-color="#F16548"/>
   <stop offset="1" stop-color="#EC1C24"/>
  </linearGradient>
  <linearGradient x1="-0.000001" y1="0.499861" x2="0.999502" y2="0.499861" id="SVGID_10_">
   <stop offset="0" stop-color="#EC1C24"/>
   <stop offset="0.376" stop-color="#E91D25"/>
   <stop offset="0.6037" stop-color="#E11F26"/>
   <stop offset="0.7919" stop-color="#D32229"/>
   <stop offset="0.9576" stop-color="#BF272E"/>
   <stop offset="1" stop-color="#B8292F"/>
  </linearGradient>
  <radialGradient r="0.7401" gradientTransform="matrix(-113.64 2.7506 -3.4154 -141.11 -10578 78247)" cx="-111.34" cy="552" gradientUnits="userSpaceOnUse" id="SVGID_11_">
   <stop offset="0" stop-color="#E0E8F5"/>
   <stop offset="0.4" stop-color="#EC1C24"/>
   <stop offset="0.7095" stop-color="#EC1C24"/>
   <stop offset="0.9106" stop-color="#B8292F"/>
   <stop offset="0.9314" stop-color="#BE2F32"/>
   <stop offset="0.9599" stop-color="#CF4139"/>
   <stop offset="0.9926" stop-color="#EA5D45"/>
   <stop offset="1" stop-color="#F16548"/>
  </radialGradient>
  <linearGradient x1="0.29228" y1="0.088999" x2="0.706328" y2="0.908277" id="SVGID_12_">
   <stop offset="0" stop-color="#fff"/>
   <stop offset="1" stop-color="#EC1C24"/>
  </linearGradient>
  <linearGradient x1="0.499843" y1="0.98902" x2="0.499843" y2="0.101517" id="SVGID_13_">
   <stop offset="0" stop-color="#EC1C24"/>
   <stop offset="0.021" stop-color="#EC2129"/>
   <stop offset="0.046" stop-color="#EE3037"/>
   <stop offset="0.0731" stop-color="#EF484E"/>
   <stop offset="0.1016" stop-color="#F2696E"/>
   <stop offset="0.1309" stop-color="#F59497"/>
   <stop offset="0.1444" stop-color="#F7AAAC"/>
   <stop offset="0.3596" stop-color="#EC1C24"/>
   <stop offset="0.4773" stop-color="#E71D25"/>
   <stop offset="0.6176" stop-color="#D92128"/>
   <stop offset="0.7688" stop-color="#C1272D"/>
   <stop offset="0.7722" stop-color="#C0272D"/>
   <stop offset="0.9944" stop-color="#EC1C24"/>
  </linearGradient>
  <linearGradient x1="0.494576" y1="0.986295" x2="0.504384" y2="0.121395" id="SVGID_14_">
   <stop offset="0" stop-color="#EC1C24"/>
   <stop offset="0.376" stop-color="#E91D25"/>
   <stop offset="0.6037" stop-color="#E11F26"/>
   <stop offset="0.7919" stop-color="#D32229"/>
   <stop offset="0.9576" stop-color="#BF272E"/>
   <stop offset="1" stop-color="#B8292F"/>
  </linearGradient>
  <linearGradient x1="1.000623" y1="0.418663" x2="0.00265" y2="0.522605" id="SVGID_15_">
   <stop offset="0" stop-color="#E0E8F5"/>
   <stop offset="0.4" stop-color="#EC1C24"/>
   <stop offset="0.7095" stop-color="#EC1C24"/>
   <stop offset="0.9106" stop-color="#B8292F"/>
   <stop offset="0.9314" stop-color="#BE2F32"/>
   <stop offset="0.9599" stop-color="#CF4139"/>
   <stop offset="0.9926" stop-color="#EA5D45"/>
   <stop offset="1" stop-color="#F16548"/>
  </linearGradient>
  <linearGradient x1="0.995349" y1="0.483657" x2="-0.001156" y2="0.540685" id="SVGID_16_">
   <stop offset="0" stop-color="#E0E8F5"/>
   <stop offset="0.4" stop-color="#EC1C24"/>
   <stop offset="0.7095" stop-color="#EC1C24"/>
   <stop offset="0.9106" stop-color="#B8292F"/>
   <stop offset="0.9314" stop-color="#BE2F32"/>
   <stop offset="0.9599" stop-color="#CF4139"/>
   <stop offset="0.9926" stop-color="#EA5D45"/>
   <stop offset="1" stop-color="#F16548"/>
  </linearGradient>
  <linearGradient x1="0.492667" y1="0.213663" x2="0.630477" y2="0.88146" id="SVGID_17_">
   <stop offset="0.2079" stop-color="#F16548"/>
   <stop offset="1" stop-color="#EC1C24"/>
  </linearGradient>
  <linearGradient x1="-0.000001" y1="0.498719" x2="0.999408" y2="0.498719" id="SVGID_18_">
   <stop offset="0" stop-color="#EC1C24"/>
   <stop offset="0.376" stop-color="#E91D25"/>
   <stop offset="0.6037" stop-color="#E11F26"/>
   <stop offset="0.7919" stop-color="#D32229"/>
   <stop offset="0.9576" stop-color="#BF272E"/>
   <stop offset="1" stop-color="#B8292F"/>
  </linearGradient>
  <radialGradient r="0.6795" gradientTransform="matrix(-113.64 2.7506 -3.4154 -141.11 -10578 78247)" cx="-110.61" cy="551.18" gradientUnits="userSpaceOnUse" id="SVGID_19_">
   <stop offset="0" stop-color="#E0E8F5"/>
   <stop offset="0.4" stop-color="#EC1C24"/>
   <stop offset="0.7095" stop-color="#EC1C24"/>
   <stop offset="0.9106" stop-color="#B8292F"/>
   <stop offset="0.9314" stop-color="#BE2F32"/>
   <stop offset="0.9599" stop-color="#CF4139"/>
   <stop offset="0.9926" stop-color="#EA5D45"/>
   <stop offset="1" stop-color="#F16548"/>
  </radialGradient>
  <linearGradient x1="0.292323" y1="0.089015" x2="0.706305" y2="0.908196" id="SVGID_20_">
   <stop offset="0" stop-color="#fff"/>
   <stop offset="1" stop-color="#EC1C24"/>
  </linearGradient>
 </defs>
 <g>
  <title>background</title>
  <rect fill="none" id="canvas_background" height="402" width="582" y="-1" x="-1"/>
 </g>
 <g>
  <title>Layer 1</title>
  <g id="himmel">
   <rect y="22" id="svg_1" fill="url(#SVGID_1_)" width="385.93" height="311.85" x="457"/>
  </g>
  <g id="Ebene_1">
   <path id="svg_2" fill="url(#SVGID_2_)" d="m319.72,222.62c0.334,0.338 0.782,0.679 1.195,0.892c0.379,0.193 0.743,0.396 1.117,0.579c0.282,-0.576 0.605,-1.111 1.092,-1.56c1.221,-1.125 2.664,-2.162 4.282,-2.635c2.157,-0.632 3.986,-0.658 5.54,-0.238c0.535,-0.587 1.037,-1.194 1.505,-1.818c-0.443,-0.346 -0.897,-0.665 -1.371,-0.929c-3.232,-1.802 -7.089,-2.095 -10.288,0.01c-2.06,1.35 -4.03,3.18 -3.08,5.7l0.008,-0.001z"/>
   <path id="svg_3" fill="url(#SVGID_3_)" d="m345.79,301.99c1.061,0.805 1.579,3.535 2.146,3.966c-5.357,-4.065 -9.853,-8.523 -13.298,-14.206c2.44,4.19 7.52,7.49 11.15,10.24l0.002,0z"/>
   <path id="svg_4" fill="#EC1C24" d="m334.64,291.75c-0.012,-0.017 -0.021,-0.03 -0.027,-0.045c0.01,0.02 0.02,0.03 0.03,0.05l-0.003,-0.005z"/>
   <path id="svg_5" fill="url(#SVGID_4_)" d="m331.44,269.23c2.004,-9.22 6.675,-17.605 8.567,-26.864c1.171,-5.727 0.918,-15.717 -3.371,-20.415c0.257,-0.343 0.505,-0.691 0.745,-1.044c2.609,3.54 4.298,8.256 5.064,11.934c4.104,19.753 -15.576,37.648 -8.697,57.022c0.225,0.633 0.513,1.244 0.859,1.841c-0.308,-0.506 -0.619,-1.009 -0.908,-1.534c-3.62,-6.63 -3.82,-13.69 -2.25,-20.95l-0.009,0.01z"/>
   <path id="svg_6" fill="url(#SVGID_5_)" d="m320.92,223.51c0.777,0.398 1.494,0.827 2.347,1.046c0.915,0.238 1.872,0.28 2.787,0.022c1.335,-0.378 2.591,-1.123 3.692,-1.945c0.607,-0.455 1.18,-0.961 1.737,-1.479c0.518,-0.478 1.001,-0.981 1.468,-1.498c0.535,-0.587 1.037,-1.194 1.505,-1.818c4.107,-5.513 5.71,-12.491 4.616,-19.384c-1.091,-6.853 -6.036,-11.788 -9.741,-17.324c-2.021,-3.024 -3.842,-6.138 -5.405,-9.427c-3.966,-8.36 -2.498,-16.582 1.942,-24.428c-0.219,0.389 2.861,3.132 2.338,4.05c-2.601,4.596 -4.432,9.32 -4.381,14.668c0.066,7.174 4.638,13.078 8.826,18.497c4.786,6.199 8.667,13.419 9.176,21.353c0.348,5.407 -1.42,10.652 -4.438,15.065c-0.24,0.353 -0.488,0.701 -0.745,1.044c-1.048,1.39 -2.212,2.686 -3.476,3.86c-0.954,0.887 -2.23,1.689 -3.418,2.206c-1.891,0.821 -4.008,0.713 -5.815,-0.278c-0.929,-0.511 -1.765,-1.177 -2.474,-1.959c-0.961,-1.065 -1.604,-2.7 -1.771,-3.253c0.33,0.34 0.78,0.74 1.22,0.97l0.01,0.012z"/>
   <path id="svg_7" fill="url(#SVGID_6_)" d="m332.06,152.73c-0.014,0.019 -0.032,0.021 -0.042,0.041c0,0.003 0,0.003 0.002,0.01c0.01,-0.02 0.02,-0.04 0.04,-0.05l0,-0.001zm-10.01,-2.39c-0.308,0.103 -0.672,0.341 -0.873,0.628c-0.199,0.286 -0.313,0.742 -0.156,1.08c0.272,0.572 1.044,0.533 1.517,0.491c0.227,-0.022 0.464,-0.026 0.687,-0.07c0.501,-0.096 1.051,-0.126 1.504,0.22c0.271,0.208 0.442,0.605 0.681,0.866c0.246,0.272 0.606,0.58 0.964,0.555c0.241,-0.009 0.479,-0.128 0.676,-0.286c0.317,-0.269 0.546,-0.651 0.857,-0.929c0.39,-0.342 0.923,-0.576 1.413,-0.457c0.437,0.104 0.871,0.226 1.309,0.343c0.298,0.075 0.673,0.159 0.976,0.102c0.64,-0.114 0.452,-0.813 0.191,-1.25c-0.25,-0.42 -0.606,-0.746 -0.98,-0.999c-0.203,-0.139 -0.425,-0.253 -0.643,-0.343c-0.821,-0.333 -1.736,-0.123 -2.525,0.227c-0.312,0.134 -0.67,0.243 -0.997,0.292c-0.657,0.094 -1.335,-0.039 -1.974,-0.244c-0.44,-0.143 -0.817,-0.414 -1.28,-0.442c-0.437,-0.03 -0.881,0.065 -1.299,0.199c-0.03,0 -0.05,0 -0.06,0.01l0.012,0.007z"/>
   <path id="svg_8" fill="url(#SVGID_7_)" d="m322.1,152.49c0.704,0.066 1.359,-0.27 2.03,-0.172c0.909,0.139 0.83,0.898 1.497,1.375c1.505,1.08 1.979,-1.293 3.224,-1.422c0.887,-0.097 3.195,1.257 3.318,-0.127c0.008,-0.073 0.002,-0.129 0.002,-0.189c0.014,0.131 0.02,0.271 0.006,0.419c-0.124,1.383 -2.435,0.026 -3.32,0.124c-1.243,0.133 -1.72,2.504 -3.223,1.427c-0.671,-0.48 -0.587,-1.238 -1.498,-1.375c-0.671,-0.103 -1.325,0.233 -2.031,0.178c-0.651,-0.061 -1.38,-0.373 -1.315,-1.172c0.07,0.61 0.71,0.87 1.3,0.92l0.01,0.014z"/>
   <path id="svg_9" fill="url(#SVGID_8_)" d="m320.83,151.29c0.052,-0.181 0.119,-0.344 0.206,-0.503c0.58,-1.056 1.797,-1.47 2.804,-1.696c0.549,-0.122 0.797,-0.09 1.199,-0.492c0.358,-0.358 0.525,-0.58 1.05,-0.629c0.55,-0.051 1.254,0.093 1.76,0.407c0.451,0.285 0.788,0.669 1.26,0.92c0.981,0.521 3.366,1.276 3.109,3.116c-0.016,0.133 -0.217,0.561 -0.368,0.341c-0.051,-0.072 0.016,-0.175 0.03,-0.248c0.078,-0.375 -0.078,-0.653 -0.283,-0.926c-0.252,-0.331 -0.589,-0.58 -0.93,-0.776c-0.678,-0.405 -1.492,-0.539 -2.238,-0.354c-1.211,0.294 -2.092,1.052 -3.331,0.434c-0.642,-0.324 -1.344,-0.638 -2.055,-0.59c-0.503,0.029 -1.044,0.254 -1.466,0.568c-0.171,0.128 -0.352,0.278 -0.439,0.497c-0.114,0.285 -0.037,0.608 -0.014,0.901c0.002,0.046 -0.191,-0.096 -0.204,-0.112c-0.2,-0.21 -0.16,-0.6 -0.09,-0.86l0,0.002z"/>
   <path id="svg_10" fill="url(#SVGID_9_)" d="m325.7,147.4c0.013,0.721 -0.084,0.608 0.856,0.589c0.939,-0.024 0.64,0.268 0.624,-0.458l0.987,-3.341c-0.02,-0.726 -0.797,-1.29 -1.732,-1.271c-0.944,0.024 -1.685,0.629 -1.668,1.353l0.93,3.13l0.003,-0.002z"/>
   <path id="svg_11" fill="url(#SVGID_10_)" d="m324.27,148.24c0.014,0.523 0.41,0.903 1.059,0.85c0.298,-0.026 0.545,-0.183 0.821,-0.271c0.628,-0.189 1.241,0.03 1.873,-0.009c0.725,-0.049 0.855,-0.483 0.654,-0.999c-0.158,-0.385 -0.631,-0.639 -1.109,-0.708c-0.511,-0.085 -0.962,0.177 -1.465,0.036c-0.82,-0.23 -1.85,0.34 -1.83,1.1l-0.003,0.001z"/>
   <path id="svg_12" fill="url(#SVGID_11_)" d="m274.22,76.81c3.838,16.986 12.428,32.883 21.775,45.722c9.496,12.633 19.743,22.213 30.432,21.77c10.696,-0.075 20.469,-10.14 29.341,-23.217c8.711,-13.278 16.526,-29.571 19.538,-46.723c2.979,-17.119 -0.116,-34.11 -9.624,-47.904c-9.31,-13.593 -25.03,-23.999 -42.68,-23.358c-17.66,0.211 -32.858,11.37 -41.496,25.397c-8.82,14.241 -11.09,31.361 -7.29,48.318l0.004,-0.005z"/>
   <path id="svg_13" fill="url(#SVGID_12_)" d="m353.68,22.857c8.665,15.799 -0.496,37.493 -20.466,48.443c-19.97,10.952 -43.186,7.021 -51.853,-8.786c-8.668,-15.802 0.497,-37.496 20.464,-48.445c19.98,-10.952 43.2,-7.019 51.86,8.788l-0.005,0z"/>
   <path id="svg_14" fill="#fff" d="m300.48,61.587c-11.319,-0.292 -18.098,-5.651 -14.689,-15.178c3.871,-9.888 14.382,-19.456 21.647,-21.611c7.601,-2.136 13.4,2.953 13.334,16.237c-0.16,12.893 -9.76,20.728 -20.29,20.552l-0.002,0zm3.26,39.253c-4.292,-3.748 -8.726,-7.488 -13.185,-11.072c15.566,-16.098 41.18,-45.352 49.465,-67.424c3.69,3.306 7.727,6.714 12.018,10.109c-8.28,20.18 -33.3,49.753 -48.3,68.387l0.002,0zm1.16,-65.071c-2.332,0.429 -5.007,3.389 -6.078,8.184c-1.211,5.695 0.53,7.127 3.293,6.958c2.908,-0.175 5.396,-2.938 6.042,-8.167c0.77,-5.969 -0.41,-7.478 -3.25,-6.975l-0.007,0zm40.9,67.591c-10.675,1.242 -17.448,-6.489 -17.474,-18.894c0.154,-12.91 9.344,-20.598 19.649,-20.607c10.536,0.11 20.098,5.13 19.624,16.953c-0.87,11.361 -12.1,21.278 -21.8,22.548l0.001,0zm2.46,-27.946c-2.996,0.102 -5.358,2.968 -5.487,8.391c-0.182,6.435 1.672,8.145 4.719,7.891c2.9,-0.251 5.57,-3.274 5.81,-8.624c0.22,-6.117 -1.74,-7.768 -5.04,-7.658l-0.002,0z"/>
   <path id="svg_15" fill="url(#SVGID_13_)" d="m254.99,302.27c-1,-6.287 -5.537,-10.816 -8.937,-15.895c-1.854,-2.775 -3.524,-5.631 -4.959,-8.648c-3.639,-7.67 -2.292,-15.213 1.781,-22.412c-0.2,0.357 2.625,2.873 2.146,3.716c-2.386,4.216 -4.066,8.55 -4.02,13.458c0.062,6.58 4.255,11.998 8.098,16.969c4.392,5.688 7.952,12.312 8.419,19.592"/>
   <path id="svg_16" fill="url(#SVGID_14_)" d="m248.56,260.32c-0.013,0.018 -0.029,0.02 -0.039,0.038c0,0.002 0,0.002 0.002,0.008c0.01,-0.02 0.03,-0.04 0.04,-0.05l-0.003,0.004zm-9.18,-2.2c-0.282,0.094 -0.616,0.312 -0.802,0.576c-0.182,0.262 -0.287,0.68 -0.143,0.99c0.25,0.525 0.958,0.49 1.391,0.451c0.208,-0.02 0.426,-0.023 0.63,-0.064c0.46,-0.088 0.965,-0.115 1.38,0.201c0.249,0.191 0.406,0.557 0.625,0.795c0.226,0.25 0.557,0.532 0.884,0.51c0.222,-0.008 0.44,-0.118 0.62,-0.264c0.291,-0.246 0.501,-0.596 0.787,-0.852c0.357,-0.314 0.847,-0.529 1.296,-0.42c0.401,0.096 0.8,0.207 1.201,0.314c0.273,0.07 0.617,0.146 0.895,0.095c0.587,-0.104 0.415,-0.747 0.176,-1.147c-0.229,-0.385 -0.557,-0.685 -0.899,-0.916c-0.187,-0.129 -0.39,-0.233 -0.589,-0.316c-0.754,-0.306 -1.594,-0.111 -2.317,0.209c-0.286,0.122 -0.614,0.223 -0.915,0.268c-0.604,0.086 -1.225,-0.035 -1.811,-0.225c-0.404,-0.131 -0.75,-0.379 -1.174,-0.405c-0.401,-0.027 -0.809,0.06 -1.192,0.183c-0.03,0.01 -0.04,0.01 -0.05,0.02l0.007,-0.003z"/>
   <path id="svg_17" fill="url(#SVGID_15_)" d="m239.42,260.1c0.646,0.06 1.247,-0.247 1.862,-0.158c0.834,0.127 0.762,0.823 1.373,1.262c1.381,0.989 1.816,-1.187 2.958,-1.305c0.813,-0.089 2.932,1.153 3.045,-0.116c0.007,-0.067 0.002,-0.118 0.002,-0.174c0.012,0.121 0.018,0.248 0.005,0.385c-0.114,1.268 -2.233,0.023 -3.047,0.113c-1.14,0.123 -1.577,2.297 -2.956,1.309c-0.615,-0.439 -0.539,-1.137 -1.375,-1.262c-0.615,-0.094 -1.216,0.215 -1.863,0.163c-0.598,-0.056 -1.266,-0.342 -1.206,-1.075c0.08,0.57 0.67,0.82 1.21,0.86l-0.008,-0.002z"/>
   <path id="svg_18" fill="url(#SVGID_16_)" d="m238.26,259c0.048,-0.166 0.109,-0.315 0.188,-0.461c0.533,-0.97 1.649,-1.35 2.573,-1.557c0.503,-0.112 0.73,-0.083 1.1,-0.451c0.328,-0.329 0.482,-0.532 0.963,-0.578c0.505,-0.046 1.151,0.086 1.615,0.374c0.414,0.262 0.723,0.614 1.155,0.845c0.9,0.479 3.089,1.171 2.854,2.859c-0.015,0.121 -0.2,0.514 -0.338,0.312c-0.047,-0.066 0.014,-0.16 0.027,-0.227c0.071,-0.345 -0.071,-0.6 -0.26,-0.85c-0.231,-0.305 -0.54,-0.532 -0.853,-0.713c-0.622,-0.371 -1.369,-0.494 -2.054,-0.324c-1.111,0.271 -1.919,0.965 -3.057,0.398c-0.589,-0.297 -1.232,-0.586 -1.885,-0.541c-0.462,0.026 -0.958,0.232 -1.346,0.521c-0.156,0.118 -0.322,0.255 -0.402,0.456c-0.104,0.262 -0.034,0.559 -0.013,0.826c0.002,0.043 -0.175,-0.088 -0.188,-0.103c-0.2,-0.19 -0.16,-0.55 -0.09,-0.79l0.011,0.004z"/>
   <path id="svg_19" fill="url(#SVGID_17_)" d="m242.72,255.42c0.012,0.661 -0.077,0.558 0.785,0.54c0.862,-0.021 0.587,0.246 0.572,-0.42l0.906,-3.064c-0.018,-0.667 -0.731,-1.185 -1.589,-1.167c-0.866,0.022 -1.546,0.577 -1.531,1.241l0.86,2.87l-0.003,0z"/>
   <path id="svg_20" fill="url(#SVGID_18_)" d="m241.41,256.2c0.013,0.479 0.376,0.829 0.972,0.78c0.272,-0.025 0.5,-0.168 0.753,-0.249c0.576,-0.174 1.14,0.027 1.719,-0.009c0.665,-0.045 0.785,-0.442 0.6,-0.916c-0.145,-0.354 -0.578,-0.586 -1.017,-0.65c-0.469,-0.078 -0.883,0.164 -1.345,0.034c-0.74,-0.2 -1.68,0.33 -1.67,1.02l-0.012,-0.01z"/>
   <path id="svg_21" fill="url(#SVGID_19_)" d="m195.497,190.67c3.521,15.583 11.403,30.168 19.978,41.947c8.712,11.591 18.113,20.38 27.921,19.974c9.813,-0.069 18.779,-9.304 26.919,-21.302c7.992,-12.182 15.162,-27.129 17.926,-42.865c2.732,-15.707 -0.107,-31.295 -8.83,-43.951c-8.534,-12.475 -22.959,-22.022 -39.151,-21.435c-16.203,0.194 -30.146,10.431 -38.071,23.301c-8.11,13.06 -10.194,28.77 -6.702,44.33l0.01,0.001z"/>
   <path id="svg_22" fill="url(#SVGID_20_)" d="m268.4,141.17c7.949,14.495 -0.455,34.398 -18.776,44.445c-18.322,10.047 -39.622,6.441 -47.573,-8.061c-7.953,-14.498 0.455,-34.401 18.774,-44.447c18.33,-10.05 39.63,-6.45 47.58,8.06l-0.005,0.003z"/>
   <path id="svg_23" fill="#fff" d="m219.47,178.27c-9.813,-0.089 -16.316,-5.642 -14.854,-15.327c1.755,-10.002 10.697,-17.67 18.271,-18.534c7.868,-0.823 14.058,4.227 14.016,15.812c-0.13,11.21 -8.35,18.07 -17.44,18.05l0.007,-0.001zm3.83,36.04c-3.555,-2.841 -7.238,-5.73 -10.995,-8.595c12.34,-18.29 32.698,-42.486 44.066,-60.648c3.421,2.928 6.994,5.864 10.662,8.737c-11.38,16.82 -31.59,40.94 -43.73,60.5l-0.003,0.006zm-1.82,-59.94c-2.254,0.162 -4.5,2.693 -4.964,7.209c-0.509,5.369 1.186,6.815 3.67,6.752c2.609,-0.064 4.701,-2.514 4.976,-7.252c0.33,-5.41 -0.96,-6.9 -3.69,-6.71l0.008,0.001zm36.57,58.68c-8.809,1.422 -14.456,-4.539 -14.475,-15.226c0.069,-11.127 8.079,-17.756 17.023,-17.737c9.155,0.066 16.764,4.272 15.781,14.101c-1.22,9.43 -10.32,17.46 -18.33,18.87l0.001,-0.008zm2.34,-23.32c-2.527,0.108 -4.595,2.543 -4.775,7.089c-0.23,5.394 1.315,6.761 3.831,6.485c2.404,-0.271 4.626,-2.805 4.951,-7.246c0.33,-5.07 -1.22,-6.44 -4.01,-6.32l0.003,-0.008z"/>
  </g>
  <path stroke="#000" id="svg_24" d="m94.01847,30.089604c-52.733313,0 -90.637362,47.551795 -90.637362,118.888243c0,63.46659 36.854875,121.111762 90.644403,121.111762c54.303553,0 91.355588,-57.627664 91.355588,-121.111762c0,-71.905458 -39.108135,-118.888243 -91.36263,-118.888243zm-0.014083,214.490812l0,0c-16.117847,0 -24.574611,-14.102714 -29.017757,-33.230231c-1.999768,-9.077911 -3.224978,-19.127517 -3.964328,-29.247155c-0.802724,-12.028013 -0.908345,-24.274876 -0.908345,-35.261162c0,-8.692734 0.126746,-17.324191 0.521066,-25.61424c0.873138,-15.126933 2.717994,-30.035017 6.266878,-42.308142c4.886756,-15.039393 13.174526,-24.703823 27.102486,-24.703823c17.60359,0 26.496923,15.59965 30.876696,37.834842c3.020776,16.5801 3.943204,36.101547 3.943204,54.922674c0,20.125475 -0.725268,45.109426 -5.372616,65.14736c-4.654389,18.724833 -13.322397,32.459878 -29.447285,32.459878z" stroke-width="1.5" fill="#f16548"/>
 </g>
</svg>