<?xml version="1.0" encoding="UTF-8" standalone="no"?>
<svg viewBox="0 0 1054.5853 1014.6424" xmlns="http://www.w3.org/2000/svg" xmlns:xlink="http://www.w3.org/1999/xlink">
<defs>
<linearGradient id="linearGradient5672">
<stop offset="0" stop-color="#fff"/>
<stop offset="1" stop-color="#fff" stop-opacity="0"/>
</linearGradient>
<linearGradient id="linearGradient5492">
<stop offset="0" stop-color="#e6e6e6"/>
<stop offset="1" stop-color="#e6e6e6" stop-opacity="0"/>
</linearGradient>
<linearGradient gradientUnits="userSpaceOnUse" id="linearGradient5612" x1="229.35536" x2="247.4366" y1="1094.7887" y2="1001.8546">
<stop offset="0"/>
<stop offset="1" stop-color="#b3b3b3"/>
</linearGradient>
<linearGradient gradientUnits="userSpaceOnUse" id="linearGradient5700" x1="292.44424" x2="293.44424" y1="104.33402" y2="134.6386">
<stop offset="0" stop-color="#fff" stop-opacity=".8077"/>
<stop offset="1" stop-color="#00f" stop-opacity="0"/>
</linearGradient>
<linearGradient gradientUnits="userSpaceOnUse" id="linearGradient5718" x1="-499.78574" x2="-502.35715" y1="250.57645" y2="277.7193">
<stop offset="0" stop-color="#fff"/>
<stop offset="1" stop-color="#00f" stop-opacity="0"/>
</linearGradient>
<linearGradient gradientTransform="matrix(.97711,0,0,.91617,-11.83811,21.51835)" gradientUnits="userSpaceOnUse" id="linearGradient5498" x1="-244.40933" x2="-246.61528" xlink:href="#linearGradient5492" y1="273.16116" y2="296.01831"/>
<linearGradient gradientTransform="matrix(.94214,.08399,-.08142,.99645,26.41374,146.55209)" gradientUnits="userSpaceOnUse" id="linearGradient5504" x1="-244.40933" x2="-246.61528" xlink:href="#linearGradient5492" y1="273.16116" y2="296.01831"/>
<linearGradient gradientTransform="matrix(.91333,.17241,-.17938,.94455,69.65062,361.18418)" gradientUnits="userSpaceOnUse" id="linearGradient5510" x1="-244.40933" x2="-246.61528" xlink:href="#linearGradient5492" y1="273.16116" y2="296.01831"/>
<linearGradient gradientTransform="matrix(.90984,.25859,-.26622,.96367,107.83775,490.3394)" gradientUnits="userSpaceOnUse" id="linearGradient5518" x1="-244.40933" x2="-246.61528" xlink:href="#linearGradient5492" y1="273.16116" y2="296.01831"/>
<linearGradient gradientTransform="matrix(.45694,-.25439,.28548,.45865,298.21972,67.82248)" gradientUnits="userSpaceOnUse" id="linearGradient5526" x1="-244.40933" x2="-246.61528" xlink:href="#linearGradient5492" y1="273.16116" y2="296.01831"/>
<linearGradient gradientTransform="matrix(.73753,-.14118,.34662,.53919,-162.05755,37.26513)" gradientUnits="userSpaceOnUse" id="linearGradient5532" x1="-244.40933" x2="-246.61528" xlink:href="#linearGradient5492" y1="273.16116" y2="296.01831"/>
<linearGradient gradientTransform="matrix(.97406,0,0,.92815,-13.41652,18.4443)" gradientUnits="userSpaceOnUse" id="linearGradient5534" x1="-244.40933" x2="-246.61528" xlink:href="#linearGradient5492" y1="273.16116" y2="296.01831"/>
<linearGradient gradientTransform="matrix(.97406,0,0,.94012,-13.41652,15.37025)" gradientUnits="userSpaceOnUse" id="linearGradient5536" x1="-244.40933" x2="-246.61528" xlink:href="#linearGradient5492" y1="273.16116" y2="296.01831"/>
<linearGradient gradientTransform="matrix(.37621,-.3001,.32524,.38397,263.79165,220.62917)" gradientUnits="userSpaceOnUse" id="linearGradient5544" x1="-244.40933" x2="-246.61528" xlink:href="#linearGradient5492" y1="273.16116" y2="296.01831"/>
<linearGradient gradientTransform="matrix(.35079,-.42385,.30326,.5423,260.65609,331.5275)" gradientUnits="userSpaceOnUse" id="linearGradient5548" x1="-244.40933" x2="-246.61528" xlink:href="#linearGradient5492" y1="273.16116" y2="296.01831"/>
<linearGradient gradientTransform="matrix(.33319,-.50392,.28805,.64476,256.94685,398.49533)" gradientUnits="userSpaceOnUse" id="linearGradient5552" x1="-244.40933" x2="-246.61528" xlink:href="#linearGradient5492" y1="273.16116" y2="296.01831"/>
<linearGradient gradientTransform="matrix(.90455,.17432,-.17765,.95503,70.3633,358.04785)" gradientUnits="userSpaceOnUse" id="linearGradient5554" x1="-244.40933" x2="-246.61528" xlink:href="#linearGradient5492" y1="273.16116" y2="296.01831"/>
<linearGradient gradientTransform="matrix(-.14123,-.77789,1.14969,-.12491,-219.1277,482.85768)" gradientUnits="userSpaceOnUse" id="linearGradient5562" x1="-244.40933" x2="-246.61528" xlink:href="#linearGradient5492" y1="273.16116" y2="296.01831"/>
<linearGradient gradientUnits="userSpaceOnUse" id="linearGradient5578" x1="192.9899" x2="451.48743" xlink:href="#linearGradient5672"/>
<linearGradient gradientUnits="userSpaceOnUse" id="linearGradient5614" x1="324.26404" x2="345.97217" xlink:href="#linearGradient5672" y1="970.6842" y2="1005.0294"/>
<linearGradient gradientUnits="userSpaceOnUse" id="linearGradient5656" x1="-195.58153" x2="62.916" xlink:href="#linearGradient5672"/>
<linearGradient gradientUnits="userSpaceOnUse" id="linearGradient5678" x1="136.64285" x2="144.07143" xlink:href="#linearGradient5672" y1="300.93359" y2="375.93359"/>
</defs>
<g transform="translate(526.78571,-99.28833)">
<path d="m-311.41836,789.52968c41.8628-79.71527 113.78249-183.56062 154.81074-213.78107l57.89561-49.6708c45.24114-36.34838 102.14097-21.67839 115.93475-1.03989l42.71357-9.69542" fill="none" stroke="#6c6c6c" stroke-width="30"/>
<path d="m-296.29581,752.04021c64.71994-116.85814 119.49677-160.7035 194.81074-228.06681l66.46703-26.81365c45.24114-36.34838 64.99811-38.82125 78.79189-18.18275l14.14214,30.30458" fill="none" stroke="url(#linearGradient5656)" stroke-opacity=".2698" stroke-width="10"/>
<g transform="matrix(.54573,0,0,.63734,-136.43546,-93.27584)">
<path d="m303.04575,1074.5856c0,40.1682-19.44721,72.731-43.43656,72.731s-43.43656-32.5628-43.43656-72.731 19.44721-72.731 43.43656-72.731 43.43656,32.5628 43.43656,72.731z" fill="url(#linearGradient5612)" stroke="#000" stroke-width="10" transform="matrix(1.31794,0,0,.98167,-18.22204,-43.62096)"/>
<path d="m303.04575,1074.5856c0,40.1682-19.44721,72.731-43.43656,72.731s-43.43656-32.5628-43.43656-72.731 19.44721-72.731 43.43656-72.731 43.43656,32.5628 43.43656,72.731z" stroke="#000" stroke-width="10" transform="translate(76.77159,-60.60915)"/>
<path d="m501.03567,954.37738c0,23.98935-13.11556,43.43656-29.29443,43.43656s-29.29442-19.44721-29.29442-43.43656 13.11556-43.43656 29.29442-43.43656 29.29443,19.44721 29.29443,43.43656z" fill="#808080" stroke="#000" transform="matrix(.8706,0,0,1,-68.50763,56.56854)"/>
<path d="m354.05847,980.64135c-16.78287-20.45374-30.5408,9.25326-33.33504,37.37565" fill="none" stroke="url(#linearGradient5614)"/>
</g>
<path d="m-2.02031,525.56763 14.14214-2.02031 8.08122-13.13198-3.53553-6.56599 20.70813-2.52538 22.22336,43.94163 2.52538,12.62691-6.06092,11.11168-14.64721-2.52538c0,0-7.07107-13.13199-8.08122-15.15229s-11.11168-22.72843-11.11168-22.72843l-21.71828,5.05076 6.06092,10.10153v19.19289l-22.72843-35.35533 5.55584-3.53554z" fill="#000080" stroke="#000"/>
<path d="m200.01021,969.52968c10.43423-88.2867 53.78249-206.41777 109.09646-290.92393l46.46703-52.52794c45.24114-36.34838 64.99811-38.82125 78.79189-18.18275l14.14214,30.30458" fill="none" stroke="#6c6c6c" stroke-width="30"/>
<path d="m197.9899,963.46878c10.43423-88.28672 53.78249-206.41779 109.09646-290.92395l46.46703-52.52794c45.24114-36.34838 64.99811-38.82125 78.79189-18.18275l14.14214,30.30458" fill="none" stroke="url(#linearGradient5578)" stroke-opacity=".2698" stroke-width="10"/>
<path d="m208.09143,965.48909c10.43423-88.28672 53.78249-206.41779 109.09646-290.92395l46.46703-52.52794c45.24114-22.20624 48.83567-24.67911 62.62945-14.14214l20.20305,34.34519" fill="none" stroke="#000" stroke-opacity=".1058" stroke-width="10"/>
<path d="m62.85714,455.21933-494.28571,154.28571 588.57143,234.28571 251.42857-302.85714z" fill="none" stroke="#000"/>
<path d="m71.42857,195.21933c-176.62206,23.00101-315.23809,37.14286-585.71428,68.57143l648.57143,65.71428 310.38868-133.93908-10.24649-5.64589z" fill="none" stroke="#6c6c6c" stroke-width="25"/>
<path d="m71.42857,195.21933-8.57143,260-491.42857,157.14285-74.28571-345.71428z" fill="none" stroke="#6c6c6c" stroke-width="20"/>
<path d="m451.42857,186.6479-48.57143,354.28571" fill="none" stroke="#000"/>
<path d="m62.85714,449.50504-477.14285,165.71429 568.57142,228.57142 251.42858-302.85714z" fill="#0ff" fill-opacity=".1287" stroke="#000" stroke-opacity=".3333"/>
<path d="m158.57143,833.79075-18.57143-512.85714 311.42857-134.28571-48.57143,360z" fill="none" stroke="#6c6c6c" stroke-width="20"/>
<path d="m57.14286,449.50504 342.85714,91.42857-247.14285,307.14286-562.85715-224.28572z" fill="none" stroke="#6c6c6c" stroke-width="20"/>
<path d="m60,380.93361-494.28572,138.57143 585.71429,181.42857 265.71429-257.14286z" fill="none" stroke="#6c6c6c" stroke-width="15"/>
<path d="m62.85714,280.93361-542.85714,82.85714 622.85714,122.85715 281.42857-180.00001z" fill="none" stroke="#6c6c6c" stroke-width="15"/>
<path d="m111.42857,195.21933-8.57143,262.85714-454.28571,185.71428-62.85714-374.28571" fill="none" stroke="#6c6c6c" stroke-width="8"/>
<path d="m388.57143,186.6479-40,337.14285-288.57143,282.85715-37.14286-488.57143" fill="none" stroke="#6c6c6c" stroke-width="12"/>
<path d="m160,192.36218-17.14286,280-402.85714,208.57143-42.85714-400v-5.71428l-1.42857,12.85714" fill="none" stroke="#6c6c6c" stroke-width="10"/>
<path d="m294.28571,192.36218-17.14285,317.14286-360,237.14286-28.57143-445.71429" fill="none" stroke="#6c6c6c" stroke-width="12"/>
<path d="m222.85714,195.21933-28.57143,288.57142-371.42857,228.57143-37.14285-417.14285" fill="none" stroke="#6c6c6c" stroke-width="11"/>
<path d="m-28.57143,198.07647 11.42857,280 374.28572,120 25.71428-368.57143" fill="none" stroke="#6c6c6c" stroke-width="11"/>
<path d="m-137.14286,215.21933 28.57143,297.14285 417.14286,142.85715 17.14286-402.85715l-5.71429-8.57143l5.71429-5.71428 5.71428,11.42857h-5.71428l-5.71429-2.85714 8.57143-8.57143-5.71429,8.57143 2.85715-2.85715 11.42857-5.71428h-2.85715" fill="none" stroke="#6c6c6c" stroke-width="12"/>
<path d="m-254.28571,235.21933 45.71428,300 474.28571,170 8.57143-430" fill="none" stroke="#6c6c6c" stroke-width="12"/>
<path d="m-382.85714,243.79075 68.57143,325.71429 530,202.85714-1.42858-474.28571l8.57143,2.85714-8.57143,8.57143 2.85715-5.71429h-5.71429" fill="none" stroke="#6c6c6c" stroke-width="13"/>
<path d="m-513.96598,256.69899 643.62698,61.70416-.96382,15.57769-645.96365-68.09042z" fill="url(#linearGradient5498)"/>
<path d="m-478.63929,359.18023 615.10314,122.43189-2.31369,16.85977-616.78862-129.57857z" fill="url(#linearGradient5504)"/>
<path d="m-478.63929,359.18023 615.10314,122.43189-2.31369,16.85977-616.78862-129.57857z" fill="url(#linearGradient5504)"/>
<path d="m-445.74721,515.05216 589.53348,177.17923-3.95087,15.89014-590.46725-184.1756z" fill="url(#linearGradient5510)"/>
<path d="m-440.07988,513.62359 583.86615,179.14572-3.91289,16.0665-584.79094-186.21974z" fill="url(#linearGradient5554)"/>
<path d="m-513.97629,256.69899 641.61699,63.31723-.96082,15.98493-643.94635-69.87045z" fill="url(#linearGradient5536)"/>
<path d="m-428.05618,604.82513 581.38128,235.23867-5.42404,16.13023-581.70134-242.57443z" fill="url(#linearGradient5518)"/>
<path d="m-428.05618,604.82513 581.38128,235.23867-5.42404,16.13023-581.70134-242.57443z" fill="url(#linearGradient5518)"/>
<path d="m-428.05618,604.82513 581.38128,235.23867-5.42404,16.13023-581.70134-242.57443z" fill="url(#linearGradient5518)"/>
<path d="m136.68459,316.28318 320.21399-136.67525 4.4032,8.0493-323.29664,134.08655z" fill="url(#linearGradient5526)"/>
<path d="m-513.97629,256.69899 641.61699,62.51069-.96082,15.78131-643.94635-68.98043z" fill="url(#linearGradient5534)"/>
<path d="m-452.09213,248.22308 509.16002-56.67878 5.16601,9.30708-513.33988,53.25792z" fill="url(#linearGradient5532)"/>
<path d="m153.95111,473.41234 269.71247-171.81687 5.1589,6.82465-272.87924,169.85805z" fill="url(#linearGradient5544)"/>
<path d="m158.23682,688.54872 251.4896-242.66753 4.81034,9.63887-254.44241,239.90097z" fill="url(#linearGradient5548)"/>
<path d="m159.66539,822.9647 238.87377-288.51208 4.56903,11.45984-241.67845,285.22286z" fill="url(#linearGradient5552)"/>
<path d="m148.56996,850.542-15.59474-520.80844 19.68741-1.35647 7.91847,523.53935z" fill="url(#linearGradient5562)"/>
<path d="m86.87312,195.75283 32.32488-50.85426 23.99636-15.57387 319.92935-11.09807 14.50512,13.36665-25.08049,62.13924 2.0203,2.02031-12.12183,2.0203" fill="none" stroke="#6c6c6c" stroke-width="30"/>
<g transform="translate(-129.29953,22.22336)">
<path d="m303.04575,1074.5856c0,40.1682-19.44721,72.731-43.43656,72.731s-43.43656-32.5628-43.43656-72.731 19.44721-72.731 43.43656-72.731 43.43656,32.5628 43.43656,72.731z" fill="url(#linearGradient5612)" stroke="#000" stroke-width="10" transform="matrix(1.31794,0,0,.98167,-18.22204,-43.62096)"/>
<path d="m303.04575,1074.5856c0,40.1682-19.44721,72.731-43.43656,72.731s-43.43656-32.5628-43.43656-72.731 19.44721-72.731 43.43656-72.731 43.43656,32.5628 43.43656,72.731z" stroke="#000" stroke-width="10" transform="translate(76.77159,-60.60915)"/>
<path d="m501.03567,954.37738c0,23.98935-13.11556,43.43656-29.29443,43.43656s-29.29442-19.44721-29.29442-43.43656 13.11556-43.43656 29.29442-43.43656 29.29443,19.44721 29.29443,43.43656z" fill="#808080" stroke="#000" transform="matrix(.8706,0,0,1,-68.50763,56.56854)"/>
<path d="m354.05847,980.64135c-16.78287-20.45374-30.5408,9.25326-33.33504,37.37565" fill="none" stroke="url(#linearGradient5614)"/>
</g>
<g transform="matrix(.75031,0,0,.72793,227.29766,-57.9009)">
<path d="m303.04575,1074.5856c0,40.1682-19.44721,72.731-43.43656,72.731s-43.43656-32.5628-43.43656-72.731 19.44721-72.731 43.43656-72.731 43.43656,32.5628 43.43656,72.731z" fill="url(#linearGradient5612)" stroke="#000" stroke-width="10" transform="matrix(1.31794,0,0,.98167,-18.22204,-43.62096)"/>
<path d="m303.04575,1074.5856c0,40.1682-19.44721,72.731-43.43656,72.731s-43.43656-32.5628-43.43656-72.731 19.44721-72.731 43.43656-72.731 43.43656,32.5628 43.43656,72.731z" stroke="#000" stroke-width="10" transform="translate(76.77159,-60.60915)"/>
<path d="m501.03567,954.37738c0,23.98935-13.11556,43.43656-29.29443,43.43656s-29.29442-19.44721-29.29442-43.43656 13.11556-43.43656 29.29442-43.43656 29.29443,19.44721 29.29443,43.43656z" fill="#808080" stroke="#000" transform="matrix(.8706,0,0,1,-68.50763,56.56854)"/>
<path d="m354.05847,980.64135c-16.78287-20.45374-30.5408,9.25326-33.33504,37.37565" fill="none" stroke="url(#linearGradient5614)"/>
</g>
<path d="m-309.05142,776.91766c53.29136-96.85814 119.49677-106.41779 174.81074-190.92395l109.32417-86.81365c45.24114-22.20624 48.83567-24.67911 62.62945-14.14214l20.20305,34.34519" fill="none" stroke="#000" stroke-opacity=".1058" stroke-width="10"/>
<g transform="translate(-649.29953,-192.06236)">
<path d="m303.04575,1074.5856c0,40.1682-19.44721,72.731-43.43656,72.731s-43.43656-32.5628-43.43656-72.731 19.44721-72.731 43.43656-72.731 43.43656,32.5628 43.43656,72.731z" fill="url(#linearGradient5612)" stroke="#000" stroke-width="10" transform="matrix(1.31794,0,0,.98167,-18.22204,-43.62096)"/>
<path d="m303.04575,1074.5856c0,40.1682-19.44721,72.731-43.43656,72.731s-43.43656-32.5628-43.43656-72.731 19.44721-72.731 43.43656-72.731 43.43656,32.5628 43.43656,72.731z" stroke="#000" stroke-width="10" transform="translate(76.77159,-60.60915)"/>
<path d="m501.03567,954.37738c0,23.98935-13.11556,43.43656-29.29443,43.43656s-29.29442-19.44721-29.29442-43.43656 13.11556-43.43656 29.29442-43.43656 29.29443,19.44721 29.29443,43.43656z" fill="#808080" stroke="#000" transform="matrix(.8706,0,0,1,-68.50763,56.56854)"/>
<path d="m354.05847,980.64135c-16.78287-20.45374-30.5408,9.25326-33.33504,37.37565" fill="none" stroke="url(#linearGradient5614)"/>
</g>
<path d="m-335.88698,740.3185h42.59674l-14.19891,84.48302 21.29838,21.80208 17.74864-2.72527 28.39782-100.83458-46.14646-16.35155-78.09405,2.72525-7.09945,38.15363z" fill="#00f" stroke="#000" stroke-width="1.0886"/>
<path d="m102.14286,306.64789-9.45955,4.85112-5.64735,12.78607 .04946,9.79756 2.91458,8.27955 32.85714,4.28571v40l11.42857,5 18.37144-.74286 7.34285-10.68571v-45l22.85714-11.42858 2.85715-11.42857-9.20546-14.41412-13.65169-2.72873-24.18418,14.28571z" fill="#00f" stroke="#000" stroke-opacity=".3392"/>
<path d="m102.14286,310.93361 40,2.85714 22.14285-13.57143h8.57143l5.71429,5-36.42857,21.42858-1.42857,40.71428h-4.28572l.71429-40.71428-43.57143-5 2.14286-6.42857z" fill="url(#linearGradient5678)" opacity=".5913"/>
<path d="m175.26931,959.47096h49.03156l-16.34385,96.44864 24.51579,24.89 20.42982-3.1112 32.6877-115.11621-53.11752-18.66748-89.89122,3.11123-8.17192,43.55749z" fill="#00f" stroke="#000" stroke-width="1.24791"/>
<path d="m156.57364,146.25535-12.12183-6.06092-2.0203-9.09137-1.01015-7.07107 3.03045-9.09137 8.08122-5.05076 10.10153-1.01015 299.00515-9.09138 9.09138,5.05077h-12.12183l-11.11168,5.05076-3.03046,9.09137-1.01015,8.08122 4.04061,6.06092h6.06091 4.04061l-3.03045,6.06091z" fill="#00f" stroke="#000" stroke-opacity=".4269"/>
<path d="m158.59395,113.93047-8.08122,4.04061-1.01015,8.08122 287.89347-4.04061v-10.10153l8.08122-7.07106z" fill="url(#linearGradient5700)"/>
<path d="m240,958.07647-11.42857,88.57143" fill="#fff" opacity=".4952" stroke="#fff" stroke-width="4"/>
<path d="m-280,743.79075-14.28571,80" fill="none" stroke="#fff"/>
<path d="m-482.85714,294.50504-3.57143,5.71428-10.71429.71429-11.42857-.71429-5.71428-20.71428-7.14286-3.57143-3.57143-6.42857v-7.14286l1.42857-7.14286 5-6.42857 42.14286-3.57143 12.14286,5.71429 2.14285,10-10.71428-1.42857-5,6.42857 .71428,7.14286 4.28572,3.57143 7.14285,4.28571-5.71428,5-15-1.42857z" fill="#00f" stroke="#000" stroke-opacity=".4561"/>
<path d="m-520.71429,259.50504 5-7.14286 40,3.57143-9.28571,6.42857-2.14286,6.42857z" fill="url(#linearGradient5718)"/>
<path d="m527.29963,314.95082-36.36549-179.80715-28.28427,66.67007-6.06092,36.36549-32.32488,232.33509 90.91373-48.48733z" fill="#fff"/>
<path d="m425.35714,624.86218 7.85715,4.28572 10.35714-.71429 7.5-4.64286 3.21429-6.07143v-3.57142l-1.78572-3.57143 27.14286-3.21429 15.35714,53.57143 3.92857,14.28571-1.78571,13.92858-5.35714,6.42857-6.78572,4.64285-5.71428-2.14285-5.35715-2.5-4.64285-40-3.92858-16.07143-33.21428,5.71428-5.71429,11.42858-2.14286,9.64285-13.57142-32.85714 11.78571-14.28571z" fill="#00f" stroke="#000" stroke-opacity=".538"/>
<path d="m479.64286,607.00504-15,19.64286 12.5,38.21428 3.92857,31.78572 3.92857,2.85714 8.92857-7.14286 3.21429-3.92857 2.14286-13.92857z" fill="#003f00" fill-opacity=".2749" stroke="#000" stroke-opacity=".2339"/>
<path d="m431.78571,644.50504-10.35714,1.78571 5.35714,13.57143z" fill="#000030" fill-opacity=".731" stroke="#000" stroke-opacity=".1637"/>
<path d="m416.42857,634.1479 42.14286-5.71429-41.78572,8.21429-3.21428-.71429z" fill="#fff" fill-opacity=".5848"/>
</g>
</svg>
