<?xml version="1.0" encoding="UTF-8" standalone="no"?>
<!DOCTYPE svg PUBLIC "-//W3C//DTD SVG 1.1//EN" "http://www.w3.org/Graphics/SVG/1.1/DTD/svg11.dtd" [
<!ENTITY ns_svg "http://www.w3.org/2000/svg">
	<!ENTITY ns_xlink "http://www.w3.org/1999/xlink">
]>
<svg enable-background="new 0 0 326.139 211.806" height="211.81" viewBox="0 0 326.139 211.806" width="326.14" xml:space="preserve" xmlns="http://www.w3.org/2000/svg">
<g fill-rule="evenodd">
	<path d="m126.47,66.739c-4.309,1.252-10.94.182-16.146.538 .067-1.188 2.283-.229 3.229-.538-1.931-2.491-7.794-.029-10.226-.538-4.512-.944-13.254-9.626-18.298-13.455-12.998-9.873-23.288-17.076-36.585-26.909-2.362-1.747-5.683-4.16-9.149-6.458-6.316-4.188-11.889-4.164-11.302-13.993 9.211-5.85 16.637,1.122 23.142,5.92 24.089,17.766 52.172,37.636 75.342,55.433zm-3.76,0c4.052-.561-9.421-1.258-8.611,0h8.61z" fill="#f6f1cd"></path>
	<path d="m108.18,82.346c-6.261.434-10.032,4.263-9.149,9.688 1.533,9.412 18.598,6.868 15.069-4.306 4.383,2.613 7.62,6.374 11.84,9.149-1.738,6.514-6.532,9.973-11.84,12.917-23.219-16.81-50.51-41.5-75.345-61.891-7.855-6.441-19.014-14.092-22.609-22.6-3.564-8.435 3.314-14.355 8.073-19.375 2.316,10.565 12.681,17.201 20.989,24.218 20.779,17.551 41.873,36.643 62.972,52.204z" fill="#f6f1cd"></path>
	<path d="m304.07,9.691c2.644.264.957,3.158 1.615,5.382 .97,3.282 3.891,4.066 3.229,9.149-.384,2.949-3.421,7.525-5.92,9.687-6.506,5.63-15.212,10.056-23.142,15.607-21,14.705-47.1,35.024-67.81,47.899 5.271-7.045-1.112-15.999-10.226-13.454 25.806-18.819 59.098-39.518 86.109-58.662 5.92-4.189 12.6-9.367 16.15-15.608z" fill="#f6f1cd"></path>
	<path d="m34.444,18.841c11.052,5.915 21.541,14.832 32.829,22.604 11.086,7.633 21.967,16.511 31.215,24.218-2.739.502-4.643.055-8.073.538-18.547-15.897-38.062-30.826-55.971-47.36z" fill="#f6f1cd"></path>
	<path d="m289.54,19.379c1.376-.023.656.4.538,1.076-17.494,10.79-32.31,23.81-49.513,34.982-5.434,3.528-10.896,9.127-18.299,9.688-.608-1.122 1.404-2.654 2.153-3.229 19.49-14.965 44.85-27.919 65.12-42.517z" fill="#f6f1cd"></path>
	<path d="m114.1,66.739c-.81-1.258 12.663-.561 8.611,0h-8.61z"></path>
	<path d="m276.63,66.201c-6.71,1.649-7.85-.63 0,0z" fill="#f6f1cd"></path>
	<path d="m91.491,67.277c.746-1.227 3.746-.201 5.382-.538-.746,1.227-3.746.2-5.382.538z" fill="#f6f1cd"></path>
	<path d="m103.33,67.277c1.097-1.235 4.47-.195 6.458-.538-1.1,1.235-4.47.195-6.46.538z" fill="#f6f1cd"></path>
	<path d="m221.73,67.277c1.139.954-1.479,2.332-2.69,3.229-3.732,2.762-9.786,6.04-13.455,9.149-23.813-.204-56.863,1.682-82.88.538-4.803-.211-10.84,1.316-15.069,0-5.357-1.667-10.032-9.221-13.455-11.84 40.365-.365 88.445-.246 127.56-1.076zm-28.52,11.302c3.215-1.091 4.141-4.47 4.844-8.073-.625-.452-1.443-.71-2.691-.539-.23,3.229-5,5.654-2.15,8.612zm-69.43-.538c.916-3.023-1.185-7.328-5.382-6.996 1.24,2.885 1.92,6.334 5.38,6.996z" fill="#f6f1cd"></path>
	<path d="m315.91,77.502c-3.221,4.951-10.54,2.479-16.146,2.691-19.016.718-43.394,1.057-60.276,1.077 5.391-5.374 12.479-9.049 18.837-13.455 19.56,1.526 47.04-3.394 57.59,9.687z" fill="#f6f1cd"></path>
	<path d="m73.731,80.193c-16.014.044-35.361.178-51.127-.538-4.996-.227-12.584,1.579-15.069-3.229 15.159-8.19 34.743-7.425 53.818-7.535 3.45,4.444 9.338,6.449 12.378,11.302z" fill="#f6f1cd"></path>
	<path d="m195.36,69.968c1.248-.171 2.066.087 2.691.539-.703,3.603-1.629,6.982-4.844,8.073-2.85-2.959 1.92-5.384 2.15-8.612zm-1.08,6.996c.47-1.527 2.745-4.04 1.614-5.382-.25,1.734-2.91,3.872-1.61,5.382z"></path>
	<path d="m118.4,71.044c4.197-.332 6.298,3.973 5.382,6.996-3.46-.661-4.14-4.11-5.38-6.996zm4.84,5.92c-.435-1.562-1.787-4.999-3.229-3.767 1.36.976 1.53,3.135 3.23,3.767z"></path>
	<path d="m195.9,71.583c1.131,1.342-1.145,3.855-1.614,5.382-1.31-1.511 1.35-3.649 1.61-5.382z" fill="#f6f1cd"></path>
	<path d="m120.02,73.197c1.442-1.231 2.794,2.205 3.229,3.767-1.71-.632-1.88-2.791-3.23-3.767z" fill="#f6f1cd"></path>
	<path d="m61.891,81.808c-1.019-.955-3.555-.392-5.382-.538-1.452-.501 5.942-1.55 5.382.538z" fill="#f6f1cd"></path>
	<path d="m203.43,80.731c-24.511,1.728-59.031,1.369-86.648,1.077-1.244-.013-5.066.12-5.92,0-3.247-.456 2.056-.568 1.615-.538 25.031-1.717 52.952,1.286 78.036,0 3.4-1.08 8.66-.306 12.91-.539z" fill="#f6f1cd"></path>
	<path d="m1.615,81.27c24.053,1.953 50.698,1.425 73.731.538 3.078-.119 10.033,6.813 12.917,9.149 3.942,3.193 7.718,6.14 10.764,9.688-25.223.016-46.439-.214-72.655-1.077-10.429-.343-24.128,2.212-23.68-9.687 .156-4.152 2.474-5.359-1.077-8.606zm30.676,8.611c1.006.429 1.971.899 3.229,1.076 1.236-1.183.874-1.788 0-3.229-1.74.547-2.816-.382-3.229,2.153zm44.131,2.153c1.645.389 1.961-.55 3.229-.539 .041-.938-.12-1.674-.538-2.152-2.047-.792-.106,2.406-2.153,1.614-.092-.805.192-1.986-.538-2.153-.736.689-.736,2.541 0,3.23z" fill="#f6f1cd"></path>
	<path d="m44.131,81.808c1.628-1.242 5.551-.19 8.073-.538-1.628,1.242-5.551.189-8.073.538z" fill="#f6f1cd"></path>
	<path d="m278.78,82.346c2.52-1.248 7.349-.186 10.764-.538h10.764c-6.1,1.254-14.52.181-21.52.538z" fill="#f6f1cd"></path>
	<path d="m200.74,82.884c-5.994,4.769-13.088,8.44-18.836,13.455-.698,2.169 1.541,4.151.538,4.844-15.803.375-36.143.204-55.971-.538 2.765-9.278-11.968-11.162-13.993-17.222 28.65-.243 58.78-.805 88.26-.534zm-46.82,8.611c.407,1.386 1.718,1.87 3.767,1.615-.005-1.43.203-3.074-.538-3.767-2.01-.216-3.16.429-3.23,2.152z" fill="#f6f1cd"></path>
	<path d="m322.91,83.422c-.576,2.756-1.111,2.208-3.229,3.229 .113,3.325 3.343.215 2.691,4.305-.183,1.621-1.893,3.332-2.691,2.691-.937,2.731 2.336,1.252 2.153,3.229-8.774,5.637-31.509,3.366-52.204,4.306-22.843,1.038-38.811-.239-59.738,0 8.002-5.991 16.397-11.587 24.756-17.222 33.89-.329 58.93.498 88.26-.536zm-67.81,4.306c-.028-.926.414-1.379 1.076-1.615 1.081,1.098-.237,1.056-.538,2.153 1.686.25 2.402-.468 2.153-2.153-.637-.62-1.902-.609-3.229-.538-.07,1.347-1.03,1.685.54,2.153zm-21.53,5.382c1.126.31 1.536,1.334 3.229,1.076 1.456-1.183.147-1.788 1.076-3.229-1.33-1.855-5.14-1.221-4.31,2.153zm50.59,1.076c2.138.344 2.904-.683 3.767-1.614-.26-4.947-7.77-1.773-3.77,1.614zm-29.06,0c-.258,1.693.767,2.104 1.076,3.229 2.186.212 3.75-.197 3.768-2.152-.15-1.793-3.52-2.136-4.85-1.077z" fill="#f6f1cd"></path>
	<path d="m208.82,97.415c-.631-.086-.454-.981-.538-1.614-4.743,1.97-8.762-3.519-5.921-7.535-5.045.054-2.451,12.202 5.383,9.149-6.33,5.102-12.279-7.005-6.459-11.302 7.66-5.655 16.68,6.651 7.54,11.302zm.53-4.305c1.082-3.195-.638-5.945-4.844-5.382-3.96,2.956 1,8.702 4.84,5.382z" fill="#f6f1cd"></path>
	<path d="m254.56,85.575c1.327-.071 2.593-.082 3.229.538 .249,1.685-.468,2.403-2.153,2.153 .301-1.097 1.619-1.055.538-2.153-.662.235-1.104.689-1.076,1.615-1.57-.468-.61-.806-.54-2.153z"></path>
	<path d="m204.51,87.728c4.206-.563 5.926,2.187 4.844,5.382-3.84,3.32-8.8-2.426-4.84-5.382zm.54,5.382c2.011.575 1.534-1.336 3.229-1.076 .07-1.327.081-2.593-.538-3.229-2.53-.307-4.21,2.264-2.69,4.305z"></path>
	<path d="m76.422,88.804c.73.167.446,1.348.538,2.153 2.047.792.105-2.406 2.153-1.614 .418.479.579,1.215.538,2.152-1.268-.012-1.584.927-3.229.539-.736-.689-.736-2.541 0-3.23z"></path>
	<path d="m105.48,91.495c-.123-1.917.774-2.813 2.691-2.691 1.9,1.853-1.02,4.399-2.69,2.691z" fill="#f6f1cd"></path>
	<path d="m207.74,88.804c.619.636.608,1.902.538,3.229-1.695-.26-1.219,1.651-3.229,1.076-1.52-2.04.16-4.611 2.69-4.305z" fill="#f6f1cd"></path>
	<path d="m237.88,90.957c-.929,1.441.38,2.046-1.076,3.229-1.693.258-2.104-.766-3.229-1.076-.83-3.374 2.98-4.008 4.31-2.153zm-3.23,2.153c1.45-.037 2.587-1.23 1.615-2.153-1.42-.162-1.76.745-1.61,2.153z"></path>
	<path d="m287.93,92.572c-.862.931-1.629,1.958-3.767,1.614-4-3.387 3.51-6.561 3.77-1.614zm-3.77-1.077v1.077c.328.03.637.081.538.538h1.076c.03-.328.08-.637.538-.538v-1.077c-.328-.03-.638-.08-.538-.538h-1.076c-.03.328-.08.637-.54.538z"></path>
	<path d="m236.26,90.957c.972.923-.165,2.116-1.615,2.153-.14-1.408.2-2.315 1.62-2.153z" fill="#f6f1cd"></path>
	<path d="m284.7,90.957h1.076c-.1.458.21.508.538.538v1.077c-.458-.099-.508.21-.538.538h-1.076c.099-.458-.21-.508-.538-.538v-1.077c.46.099.51-.21.54-.538z" fill="#f6f1cd"></path>
	<path d="m259.94,95.263c-.018,1.956-1.582,2.364-3.768,2.152-.31-1.125-1.334-1.536-1.076-3.229 1.34-1.059 4.71-.716 4.85,1.077zm-3.76-.538v1.076c.329.03.638.081.539.538h1.076c.03-.328.08-.637.538-.538v-1.076c-.328-.031-.638-.081-.538-.539h-1.076c-.04.329-.09.637-.54.539z"></path>
	<path d="m256.71,94.186h1.076c-.1.458.21.508.538.539v1.076c-.458-.099-.508.21-.538.538h-1.076c.099-.458-.21-.508-.539-.538v-1.076c.46.098.51-.21.54-.539z" fill="#f6f1cd"></path>
	<path d="m6.997,100.11c2.586.104 2.894,2.487 3.229,4.843-1.297.221-1.17-.983-2.691-.538-.326-1.29-.774-2.45-.538-4.3z" fill="#f6f1cd"></path>
	<path d="m12.378,100.11c12.601,2.643 32.828.131 48.437,1.614 1.331.126 4.938-.251 4.844,2.153-.319,2.965-4.04,1.533-5.382,1.615-11.796.72-33.769,1.982-46.284,0-.138-2.19-2.006-2.65-1.615-5.37z" fill="#f6f1cd"></path>
	<path d="m319.14,101.18c.229,11.394-20.444,5.633-26.909,6.996 .186-2.871-.078-3.746.538-5.382 10.75.27 17.25-.89 26.37-1.62z" fill="#f6f1cd"></path>
	<path d="m89.877,103.87c-8.966-.252-14.007,2.154-23.142.538-.687-3.5 3.641-2.089 5.92-2.153 5.551-.16 14.399-1.01 17.222,1.61z" fill="#f6f1cd"></path>
	<path d="m102.79,102.8c2.036,1.51 1.879,7.007 1.615,9.149-2.316-1.092-1.365-5.452-2.153-8.073h-11.302c1.116-2.66 9.172-.54 11.842-1.08z" fill="#f6f1cd"></path>
	<path d="m188.36,109.79c-20.276,1.069-39.721,1.154-61.891,1.077-.744-2.126-.779-4.962-1.076-7.535 7.575.59 17.881-.495 26.909,0 15.4.84 34.04-4.079 36.06,6.45z" fill="#f6f1cd"></path>
	<path d="m213.12,102.8h2.153c.603,1.724 1.956,8.251-2.153,6.997 .15-3.49-1.04-4.97 0-7z" fill="#f6f1cd"></path>
	<path d="m291.16,103.34v4.843c-4.719.405-14.701,1.774-20.451,1.077 .645-1.509.592-3.714.538-5.92 7.11.6 15.61-1.12 19.91,0z" fill="#f6f1cd"></path>
	<path d="m123.78,103.34c1.733,1.121 1.104,6.924 1.076,8.073-1.16-1.9-1.13-4.97-1.08-8.07z" fill="#f6f1cd"></path>
	<path d="m101.18,104.95c1.059,1.453.32,4.703.538,6.997-14.562.646-32.737,1.636-49.513,1.614-.766-1.925-1.538-3.844-1.615-6.458 17.216-.36 32.649-2.51 50.588-2.15z" fill="#f6f1cd"></path>
	<path d="m7.535,106.03c6.26.916 12.674,1.678 19.913,1.614 .22,2.155 1.897,4.971 1.077,6.458-5.724-.119-13.3-.368-19.913-1.077-.841-1.85-1.265-4.12-1.077-6.99z" fill="#f6f1cd"></path>
	<path d="m105.48,106.03c5.078,5.456 12.144,5.456 17.222,0-.318,2.291.387,3.56.538,5.382-5.779-.039-11.609-.128-16.684.538-.71-1.63-.37-4.3-1.08-5.92z" fill="#f6f1cd"></path>
	<path d="m48.975,107.1c.745,1.767 1.269,3.754 1.077,6.458-7.682-.441-11.157,0-19.913,0-.396-2.115-1.122-3.9-1.614-5.92 8.5.36 12.907-.58 20.45-.54z" fill="#f6f1cd"></path>
	<path d="m316.45,108.72c-.256,2.974-1.247,5.211-4.306,5.382-.167-2.14 1.243-2.704 1.076-4.844 1.65.38 1.96-.56 3.23-.54z" fill="#f6f1cd"></path>
	<path d="m309.99,109.26c1.725.354.941,6.862-2.152,5.92 .45-2.24.74-4.65 2.15-5.92z" fill="#f6f1cd"></path>
	<path d="m307.84,109.79c-.261,2.251-1.034,3.989-1.614,5.92-18.566,1.205-34.096,2.644-49.513,1.077 .004-2.762-.788-3.531 0-5.92 18.1.7 33.29-1.51 51.12-1.08z" fill="#f6f1cd"></path>
	<path d="m231.96,110.87c.948,2.325.495,6.486 0,7.534-16.377.489-41.611.926-61.353,0-.386-2.791-.274-3.188-.538-6.458 18.56-.72 42.23-1.14 61.89-1.07z" fill="#f6f1cd"></path>
	<path d="m255.64,110.87c-.216,3.222-.021,3.536-.538,6.458-7.707-.441-16.053,1.045-22.065.538 .339-1.339.625-3.875.538-6.996 10.38.12 15.67-.78 22.06,0z" fill="#f6f1cd"></path>
	<path d="m168.45,111.41c.709,1.982 1.217,4.166 1.076,6.996-9.734,1.017-13.804.665-22.065,1.077-.779-2.091-1.234-4.506-1.076-7.535 8.56-.08 14.96.2 22.07-.55z" fill="#f6f1cd"></path>
	<path d="m145.31,112.48c-.217,2.549.961,3.704.538,6.458-17.714,1.955-34.987,1.234-53.818,1.615-.661-2.03-1.085-4.297-1.076-6.997 19.724-.31 38.884-1.96 54.354-1.08z" fill="#f6f1cd"></path>
	<path d="m6.458,113.02c1.074-1.384 2.182,1.729 2.153,3.229-1.207-.59-.946-2.64-2.153-3.23z" fill="#f6f1cd"></path>
	<path d="m89.338,113.56c1.008,3.126 1.015,5.12.539,6.997-27.75,2.006-45,1.64-71.041-.538-.474-1.5-.671-3.275-1.614-4.306 15.444-1.689 31.292-.92 48.975-1.076 .572,2.198-.035,3.984 1.076,6.458 1.754-1.497-.661-5.426.538-6.458 5.751-.33 14.234-.69 21.527-1.07z" fill="#f6f1cd"></path>
	<path d="m316.99,113.56c2.125,1.006-.079,5.154-1.077,7.535-6.888,1.902-16.258,1.322-24.218,2.153-.901-.893-.429-3.16-.538-4.844 8.83-1.41 19.86-.6 25.84-4.85z" fill="#f6f1cd"></path>
	<path d="m9.688,114.64h3.767c.229,1.924 1.434,2.872 1.077,5.382-1.646.39-1.583-.929-3.229-.538-.641-1.51-1.212-3.09-1.615-4.84z" fill="#f6f1cd"></path>
	<path d="m15.607,115.18c1.169,1.163 1.522,3.142 2.153,4.844-1.837-.5-1.668-3-2.153-4.84z" fill="#f6f1cd"></path>
	<path d="m269.09,118.94c.496,2.578.144,2.039.538,5.382-6.4,2.21-16.701.521-23.68,2.153 1.143,2.132 4.16-.081 8.61.539 .603,1.483.358,4.449 0,6.458-7.538-.183-14.194.516-20.989,1.076-1.059-1.452-.32-4.703-.538-6.996 6.655-.274 8.298.048 11.84-.538-4.9-2.094-19.844.847-27.985-1.077-.469-1.557-.469-4.364 0-5.92 15.56.19 37.23-2.94 52.21-1.07z" fill="#f6f1cd"></path>
	<path d="m290.08,117.87c-.349,2.636-.094,2.528 0,5.382-5.591.608-12.475,1.587-19.375,1.615 .411-2.346-.666-4.985 0-5.92 7.43-.01 13.33-.97 19.38-1.07z" fill="#f6f1cd"></path>
	<path d="m191.06,120.02c.511,2.741.511,4.255 0,6.997-18.763.252-41.866,1.781-62.967.538-.266-1.888-.803-3.503-.539-5.92 21.01-1.82 41.1-1.78 63.51-1.62z" fill="#f6f1cd"></path>
	<path d="m211.51,120.02c-.198,2.133.493,5.158-.538,6.458-5.114.268-11.354-.591-15.607.539-1.061-1.628-1.52-4.888-.538-6.997h16.69z" fill="#f6f1cd"></path>
	<path d="m212.58,120.02h2.691c-.375,2.137.938,5.961-1.076,6.458-2.85.16-1.15-4.23-1.61-6.46z" fill="#f6f1cd"></path>
	<path d="m192.13,120.56c2.297.214.513,4.51 1.076,6.458-2.02-1.5-.4-3.46-1.08-6.46z" fill="#f6f1cd"></path>
	<path d="m10.764,121.63c6.007-1.338 13.093.896 19.375,1.076 .726,2.808.963,2.857 1.077,5.92-6.859.042-13.928.293-19.375-1.076-.384-1.95-.204-4.46-1.077-5.92z" fill="#f6f1cd"></path>
	<path d="m125.4,121.1c1.927.943 1.185,4.555 1.614,6.997-2.65-.22-1.26-4.49-1.61-7z" fill="#f6f1cd"></path>
	<path d="m102.79,121.63c.349,2.026 1.184,5.684 0,7.534-14.923-1.253-34.036,1.021-48.437,0-.685-1.647-.763-3.901-1.614-5.382 14.991-.73 31.525-2.03 50.051-2.15z" fill="#f6f1cd"></path>
	<path d="m103.87,121.63h1.614c1.06,1.452.32,4.703.539,6.996-2.44-.6-1.21-4.89-2.15-7z" fill="#f6f1cd"></path>
	<path d="m51.666,122.71c-.284,2.507 1.671,4.799.539,6.458-7.162-.458-13.625.396-19.375-.538-.354-1.978-1.045-3.619-1.076-5.92 8.371.13 12.927-.78 19.912,0z" fill="#f6f1cd"></path>
	<path d="m309.99,123.25h3.768c-.612,1.899-.594,4.429-1.076,6.458-2.142-.348-2.164,1.424-4.306,1.077-.16-3.23 1.3-4.81 1.62-7.54z" fill="#f6f1cd"></path>
	<path d="m303.54,123.79c1.033,2.155-1.008,5.287-1.076,8.073-14.986,1.237-33.434,2.486-46.284,1.077v-5.92c13.31-.27 30.14-2.17 47.36-3.23z" fill="#f6f1cd"></path>
	<path d="m305.69,123.79h1.614c-.325,3.765.191,5.821-2.153,8.073-2.73-1.52.51-5.79.54-8.07z" fill="#f6f1cd"></path>
	<path d="m231.96,127.55v6.996c-21.058-.106-38.835,3.177-60.814.538v-5.92c21.73-1.06 38.48-1.92 60.81-1.62z" fill="#f6f1cd"></path>
	<path d="m147.46,128.63c6.415.969 15.604.711 22.065,0 1.083,1.608.305,5.078.539,7.535h-22.066c-.8-1.72-.73-6.51-.53-7.53z" fill="#f6f1cd"></path>
	<path d="m13.455,129.17c1.867-.432 2.069.802 3.768.538 .718,2.438.723,3.501 1.076,5.382-1.059,1.068-3.074.343-4.305,0 .243-2.32-1.468-4.6-.539-5.92z" fill="#f6f1cd"></path>
	<path d="m145.85,129.17c1.06,1.452.32,4.703.538,6.997-19.146,1.092-39.77,2.081-54.356,1.076-.266-3.199.565-4.799 0-6.996 18.236-.19 33.856-1.45 53.816-1.08z" fill="#f6f1cd"></path>
	<path d="m19.375,129.71c2.812.596 1.97,4.847 3.229,6.997-3.399.21-3.338-5.45-3.229-7z" fill="#f6f1cd"></path>
	<path d="m22.065,129.71c13.235.754 31.483.377 45.208,1.077-.061,3.913.481,4.362.538,7.535-12.423-.286-30.364,1.308-43.055-1.615-1.937-1.29-1.564-4.89-2.691-6.99z" fill="#f6f1cd"></path>
	<path d="m90.415,129.71c1.429,1.262-.398,5.78 1.076,6.997-5.781,2.314-14.551.188-22.065,1.615-.988-2.823-.505-5.29-1.076-7.535 8.574-1.04 14.893-.47 22.065-1.07z" fill="#f6f1cd"></path>
	<path d="m313.22,137.78c-5.062,3.615-15.698,4.304-23.142,3.768-.728-1.542.004-5.537.538-7.535 8.89.278 16.926-.295 22.604-3.229 2.67.99-.37,4.78 0,6.99z" fill="#f6f1cd"></path>
	<path d="m288.47,134.01c.41,2.139.338,4.919-.538,8.073-6.352.106-11.414,1.502-18.298,1.077 .234-3.465.532-4.753 0-8.073 6.53-.21 14.31-.47 18.84-1.08z" fill="#f6f1cd"></path>
	<path d="m268.55,135.09v8.073c-15.141.357-33.884.316-51.128.538-1.082-1.609-.304-5.078-.538-7.535 19.62-.22 33.76-2.67 51.67-1.07z" fill="#f6f1cd"></path>
	<path d="m13.455,136.7c5.897,1.638 13.07,1.999 19.913,2.691 .819,1.513.512,4.152 1.076,5.92-7.809.274-14.981-.088-19.913-2.691-.656-1.67-1.253-3.41-1.076-5.92z" fill="#f6f1cd"></path>
	<path d="m211.51,136.7c-.398,3.397.343,4.62-.538,7.535-5.966-.404-10.267.855-16.146.538-.56-1.687.331-4.516 0-7.535 5.86.12 10.54-.94 16.69-.54z" fill="#f6f1cd"></path>
	<path d="m212.58,136.7h3.229v6.997h-3.229v-7z" fill="#f6f1cd"></path>
	<path d="m191.59,137.78c-.029,2.482.239,5.262-.538,6.997-16.669-1.861-42.307.978-61.353,0 .422-2.754-.755-3.909-.538-6.458 19.05-1.59 42.67-1.47 62.43-.54z" fill="#f6f1cd"></path>
	<path d="m192.67,137.24c.635,1.198 1.474,7.196-.538,7.535 1.22-1.93-.04-6.38.54-7.54z" fill="#f6f1cd"></path>
	<path d="m127.01,137.78c2.426.445 1.415,4.326 1.615,6.997-2.17-.7-1.43-4.31-1.61-7z" fill="#f6f1cd"></path>
	<path d="m105.48,146.39c-17.395-.861-31.029,1.69-48.975-.538-.609-1.723-1.094-3.569-1.076-5.92 15.273-.562 32.403-1.433 48.437-1.076 2.42,1.25 1.21,3.72 1.61,7.54z" fill="#f6f1cd"></path>
	<path d="m108.71,138.32c5.018,1.53 11.248-.176 16.684,0 .894,1.617.405,4.617 1.076,6.458-4.636,1.104-11.349.133-16.146,1.076-.92-2.13-1.54-4.56-1.61-7.54z" fill="#f6f1cd"></path>
	<path d="m106.02,138.86h1.614c-.59,2.586 1.662,5.124 0,6.996-1.98-.89-.96-4.78-1.61-7z" fill="#f6f1cd"></path>
	<path d="m34.444,139.39c6.72.423 13.89.562 18.836,0 1.225,1.466 1.538,3.844 1.615,6.458-7.298.144-13.792-.323-19.375-.538 .226-2.55-.782-3.88-1.076-5.92z" fill="#f6f1cd"></path>
	<path d="m310.53,141.01c-.677,3.449-.245,8.006-4.843,7.535-.45-4.57.14-8.1 4.84-7.53z" fill="#f6f1cd"></path>
	<path d="m300.31,142.62c1.059,1.453.32,4.703.538,6.997-12.529.754-28.673,2.907-45.208,2.69 .234-2.457-.544-5.926.538-7.534 13.14.84 28.92-1.2 44.13-2.16z" fill="#f6f1cd"></path>
	<path d="m302.46,142.62h1.614c-.296,2.394.834,6.216-1.076,6.997-2.24-1.44.06-4.07-.53-7z" fill="#f6f1cd"></path>
	<path d="m254.56,144.78v7.534c-8.63.222-14.081.498-21.527,0v-7.534c7.47.61 15.47-.99 21.53,0z" fill="#f6f1cd"></path>
	<path d="m19.375,145.31c.746,1.767 1.269,3.754 1.077,6.458-1.131.973-2.757-.821-4.306-1.076 .04-2.013-.226-3.72-1.076-4.844 .367-1.96 2.142.12 4.305-.54z" fill="#f6f1cd"></path>
	<path d="m170.6,145.31c1.059,1.452.32,4.703.538,6.996-7.946-.129-15.232,1.054-22.604.539-.03-2.482.238-5.262-.539-6.997 8.06.35 14.97-.46 22.6-.54z" fill="#f6f1cd"></path>
	<path d="m21.527,145.85c4.116-.762 3.316,5.842 3.229,7.535-.479-.419-1.215-.579-2.152-.538-.961-1.72-.313-5.06-1.077-6.99z" fill="#f6f1cd"></path>
	<path d="m146.92,145.85c.323,2.798.459,4.642 0,6.997-16.531.094-36.521,1.759-53.818.538 .067-2.221-.936-3.37-.539-5.921 20.177-.57 34.177-.97 54.357-1.62z" fill="#f6f1cd"></path>
	<path d="m25.833,146.39c12.325.719 28.595.973 41.978,1.076 1.639.894 1.353,5.906.539,7.535-13.881-.626-27.835-.452-41.979-1.614 .322-2.84-.399-4.63-.538-7z" fill="#f6f1cd"></path>
	<path d="m92.029,153.92c-5.99.671-14.875.558-21.527,1.076-.961-1.73-.313-5.068-1.076-6.996 7.218,2.13 25.699-6.24 22.603,5.92z" fill="#f6f1cd"></path>
	<path d="m310.53,148c1.394,1.604.161,5.16-.538,6.458-5.134,2.579-12.644,2.784-19.912,3.229-.323-2.729-.564-3.479 0-5.92 7.66-.41 15.68-.46 20.45-3.77z" fill="#f6f1cd"></path>
	<path d="m288.47,151.77c.192,2.704-.143,4.881-1.076,6.458-7.135-.094-10.526.838-18.298.539-.33-2.617-.33-2.765 0-5.382 6.39-.61 13.01-.99 19.38-1.62z" fill="#f6f1cd"></path>
	<path d="m16.146,152.31c5.104,2.252 12.203,2.508 18.836,3.229 .733,1.42.636,3.669 1.077,5.382-5.999.865-12.805-.373-18.298-1.614-.899-1.8-2.264-5.39-1.615-7z" fill="#f6f1cd"></path>
	<path d="m191.06,155v3.768c-12.915,2.648-41.513,2.229-59.738.538v-4.844c20.04-.13 38.71-1.82 59.74.53z" fill="#f6f1cd"></path>
	<path d="m267.48,153.92v4.844c-18.99,2.267-34.202,3.174-51.128.538 .804-.868-.464-2.698 0-4.844 15.51-.63 39.86-1.13 51.13-.54z" fill="#f6f1cd"></path>
	<path d="m127.01,154.46c.568,1.655 1.157,5.313.538,6.458-5.662-.28-9.811.953-15.607.538-.649-1.862-1.173-3.851-1.077-6.458 5.26-.81 9.65-.33 16.15-.54z" fill="#f6f1cd"></path>
	<path d="m128.63,154.46h1.614c-.352,1.997.519,5.539 0,5.92-2.17-.34-1.46-3.56-1.61-5.92z" fill="#f6f1cd"></path>
	<path d="m210.97,154.46v5.382c-5.333,1.218-10.142.031-15.607.538-.955-1.019-.392-3.555-.538-5.382 6.91.19 9.32-.8 16.15-.54z" fill="#f6f1cd"></path>
	<path d="m212.04,154.46h3.229v5.382c-1.695.604-1.219.049-3.229,0v-5.38z" fill="#f6f1cd"></path>
	<path d="m37.135,155c5.542,1.096 12.98.295 19.375.538-.416,2.568.842,3.464.538,5.92-7.64-.006-12.085-.134-19.375,0-.606-1.62-1.808-4.66-.538-6.46z" fill="#f6f1cd"></path>
	<path d="m106.56,155c.716,1.616.547,4.117.538,6.458-19.894-.343-32.468,2.842-48.975-.538-.022-1.771-.909-2.68-.538-4.844 18.286.53 31.101-1.14 48.973-1.08z" fill="#f6f1cd"></path>
	<path d="m108.18,155c.869-.151.927.509 1.615.538-.054,2.206-.106,4.411.538,5.92-3.35.64-2.25-5.41-2.16-6.46z" fill="#f6f1cd"></path>
	<path d="m192.13,155c2.171-.065 2.425,4.598 0,4.844v-4.84z" fill="#f6f1cd"></path>
	<path d="m307.84,157.15c1.248,1.518-.621,3.364 0,5.92-1.297-.22-1.17.983-2.691.539 .2-2.85-1.1-7.19 2.69-6.46z" fill="#f6f1cd"></path>
	<path d="m298.69,158.23c2.931.654.713,4.053 1.615,5.921-10.291,3.847-28.76,2.824-44.67,3.767-1.031-1.301-.339-4.324-.538-6.458 14.28-1.34 29.75-1.47 43.6-3.23z" fill="#f6f1cd"></path>
	<path d="m301.92,158.23c.479.331.963.651 1.076,0 1.388,1.753-.671,3.797.538,5.921-.626-.088-.957.118-1.076.538-1.84-.39-1.21-5.26-.54-6.46z" fill="#f6f1cd"></path>
	<path d="m230.88,162v6.458c-19.196.287-39.295,1.276-57.586-.538-.365-1.967-.751-3.913-.538-6.458 20.8-.38 36.71-1.08 58.13.54z" fill="#f6f1cd"></path>
	<path d="m19.375,162c.087-.631.981-.454 1.615-.538 .431,1.742 1.939,5.21.538,6.996-2.526-.35-.732-5.01-2.153-6.46z" fill="#f6f1cd"></path>
	<path d="m148,161.46c-.449,3.016.864,5.098 0,6.996-18.43.288-37.08,1.547-53.818,1.615-.777-1.735-.509-4.515-.538-6.997 18.086-.57 35.846-1.48 54.356-1.62z" fill="#f6f1cd"></path>
	<path d="m149.62,161.46h22.065c-.423,2.755.755,3.909.538,6.458-7.44.175-15.846.943-22.604.538v-7z" fill="#f6f1cd"></path>
	<path d="m253.48,161.46c.997,1.155.363,3.942.538,5.92-4.955,1.674-16.802,1.296-22.065.538v-5.92c8.16-.34 15.38.34 21.52-.54z" fill="#f6f1cd"></path>
	<path d="m23.142,162c1.645-.389 1.961.551 3.229.538-.397,2.55.605,3.7.538,5.92h-3.229c-.174-2.05-1.212-5.26-.538-6.46z" fill="#f6f1cd"></path>
	<path d="m27.447,162.54c14.185-.023 30.889-.265 41.979,1.077 1.405,1.106-.379,5.402 1.076,6.458 1.403-1.438.108-4.745 0-6.458 3.54-.207 13.685-.684 22.065-.539-.322,2.834.399,4.624.539,6.997-5.59.468-13.965.568-25.833.538 12.965,2.888 28.879-.344 41.44.538-.406,3.276.86,4.88.539,8.072 11.937-.972 23.325-1.006 39.826-1.076 .511,1.784.835,3.785 0,5.92-19.316.882-35.57,2.882-52.742,1.076 .303-2.456-.954-3.352-.538-5.92 3.951-.354 9.322.712 12.378-.538-21.767-.062-44.529.479-65.12-.538 8.201,2.024 18.275,2.176 28.524,2.153-.422,2.754.755,3.909.538,6.458-11.939-1.604-23.551.09-35.52-1.615 1.994,1.773 3.661,3.874 3.767,7.535-4.943.617-9.487,1.636-15.069,1.614-1.738-2.029-2.392-5.143-2.691-8.61 4.546.118 8.461.867 13.455.538-.171-2.521-4.506-.877-5.92-2.153 .067-2.22-.935-3.37-.538-5.92 3.696.25 7.085.809 11.302.538-1.728-1.859-2.569-4.605-2.691-8.072 6.671.877 16.48.214 21.527,1.076-.019,2.351-.198,4.862 1.077,5.92 1.195-1.058-.706-3.569 0-5.92h5.92c-8.665-3.152-25.359-1.543-37.673-2.691-1.496-1.22-.979-4.43-1.621-6.47z" fill="#f6f1cd"></path>
	<path d="m308.38,164.69c.285,2.796-.71,4.312-1.076,6.458-4.778,2.397-11.541,2.811-18.298,3.229v-6.458c6.42-1.12 13.19-1.89 19.38-3.23z" fill="#f6f1cd"></path>
	<path d="m287.39,168.46v5.382c-6.34,1.592-12.871,1.184-19.374,1.615v-6.459c5.33-.47 12.16-.6 19.37-.54z" fill="#f6f1cd"></path>
	<path d="m191.06,170.07c-.415,2.568.842,3.464.538,5.92-11.32.603-24.851-.279-32.829,2.152 4.713.566 8.813-1.318 13.993,0-.269,2.679.11,3.206-.538,4.844-7.88-.707-15.015,1.605-21.527.538v-5.382h5.92c-5.5-2.393-15.342-.444-22.604-1.076-.548-2.144-.784-4.598-1.077-6.996 20.71-.55 38.4-1.26 58.13.01z" fill="#f6f1cd"></path>
	<path d="m266.94,169.53c.015,2.346.321,4.984-1.076,5.92-3.694.79-8.122.848-12.378,1.076-.961,1.729-.313,5.068-1.076,6.996-8.839.087-14.452-.192-20.989-.538v-5.382c7.324-.077 11.883.5 17.76,0-9.335-2.404-24.076-.285-32.829-2.152 .362-2.622-.947-3.57 0-5.382 17.68-.7 37.21-1.12 50.6-.55z" fill="#f6f1cd"></path>
	<path d="m19.913,169.53c7.266-.557 11.118,1.075 16.684,1.076 .609,1.723 1.094,3.569 1.076,5.92-4.818,1.302-11.379,1.364-16.146,0-1.056-1.82-1.556-4.19-1.614-7z" fill="#f6f1cd"></path>
	<path d="m130.24,170.07c2.935.085 2.39,6.017 2.153,7.534-2.19-1.03-1.46-4.99-2.15-7.53z" fill="#f6f1cd"></path>
	<path d="m192.67,170.07c6.414-.155 12.711.258 17.76,0 .833,1.102.833,4.817 0,5.92h-11.302c9.051,2.67 22.258-.728 31.215,1.614-.146,1.827.416,4.363-.538,5.382-18.018,1.657-38.595,1.491-56.51-.538-.06-2.669.528-2.645 0-4.844 8.173-.528 16.685-.202 25.295-1.076-.337-1.278-3.312.083-3.768-1.076-.11-1.685.363-3.951-.538-4.844-1.406.746.262,4.567-1.076,5.382-2.03-1.16-.7-4.73-.52-5.91z" fill="#f6f1cd"></path>
	<path d="m212.04,170.07h3.229c-.398,2.112 1.136,6.158-1.614,5.92-2.44-.07-1.37-3.65-1.62-5.92z" fill="#f6f1cd"></path>
	<path d="m109.79,170.61h1.614c.625,1.751 1.011,5.856 0,7.534-1.82-1.03-1.9-6.12-1.61-7.53z" fill="#f6f1cd"></path>
	<path d="m113.02,170.61h16.146c.777,1.734.509,4.514.538,6.996-4.035-.546-10.105.345-15.607,0-.67-2.04-1.09-4.3-1.08-7z" fill="#f6f1cd"></path>
	<path d="m304.61,173.3c2.673-.31.886,4.88 0,5.92-.83-1.88-.55-4 0-5.92z" fill="#f6f1cd"></path>
	<path d="m300.84,174.38h1.614c-.666,2.122.88,5.254-2.152,5.921-.03-3.37.5-2.83.54-5.92z" fill="#f6f1cd"></path>
	<path d="m299.23,174.91c-.327,1.286.676,3.904-.538,4.305-12.146,5.272-28.956,4.249-44.669,4.306v-5.382c14.96-1.2 30.23-2.07 45.21-3.24z" fill="#f6f1cd"></path>
	<path d="m25.833,178.14h1.076c2.701.349 1.091,5.009 2.153,6.996-4.037.63-2.271-4.55-3.229-7z" fill="#f6f1cd"></path>
	<path d="m95.259,179.76c-1.247,2.491.472,3.319-.539,5.382-6.41.767-13.397.955-20.451,1.077-1.228-1.284-.942-4.082-1.615-5.92 7.691.02 13.715.02 22.605-.54z" fill="#f6f1cd"></path>
	<path d="m306.23,180.3c.247,3.476-1.562,4.896-2.691,6.996-4.613.947-9.622,1.5-15.069,1.614v-5.382c5.91-1.09 12.07-1.93 17.76-3.23z" fill="#f6f1cd"></path>
	<path d="m191.06,185.14v2.691c-2.432,3.096-6.782,1.3-10.225,1.614-13.656,1.249-29.776,2.724-45.208,2.153-.669-1.663-.838-3.826-1.076-5.92 18.47-.34 37.61-3.03 56.51-.53z" fill="#f6f1cd"></path>
	<path d="m265.32,185.14c-.638,2.153-.005,3.536-.538,5.382-10.793-.165-27.009.471-38.749-.538-.496,2.11 2.839.391 3.229,1.615-.146,1.827.417,4.363-.538,5.382-6.231-.314-10.196-.206-15.607-.538-.997-1.156-.362-3.942-.538-5.921h11.841c-.774-2.454-6.464.006-8.073-1.614-.295-2.146-.295-1.62 0-3.768 16.74-2.22 31.44.55 48.98,0z" fill="#f6f1cd"></path>
	<path d="m287.39,184.06c-.914,1.418-.054,4.61-1.076,5.92-6.194.623-13.271.364-19.375,1.077v-5.921c4.44-.63 13.22-.37 20.45-1.08z" fill="#f6f1cd"></path>
	<path d="m193.75,185.14c.879.871-.48,2.252 0,4.306-1.93-.1-2.29-4.39 0-4.31z" fill="#f6f1cd"></path>
	<path d="m195.36,185.14h15.607c.309,6.869.741,12.28 0,19.913-5.509-.636-10.027-.426-15.607,0-1.01-6.05.5-11.04 0-19.91z" fill="#f6f1cd"></path>
	<path d="m212.58,185.14h2.691c-.167,1.627.598,4.187-1.076,4.306-2.33.35-1.44-2.5-1.61-4.31z" fill="#f6f1cd"></path>
	<path d="m110.33,186.75c.265,1.887.802,3.503.538,5.92-15.586,2.087-30.526,2.536-46.284,1.614-.131-2.38-1.102-3.921-1.076-6.458 12.843-.24 30.933-1.87 46.82-1.07z" fill="#f6f1cd"></path>
	<path d="m130.78,186.22c1.928,5.786 1.038,14.39 4.305,18.836 1.281-.745-1.222-4.039 0-4.844 1.988.165.943,3.362 2.153,4.306 1.818.114 5.47-.143 8.611,0 3.111.142 11.951.79 7.534,1.076-7.877.844-23.591.455-35.52.538-1.583-5.771-2.282-12.428-3.229-18.836 4.88-.89 10.94-.57 16.16-1.09z" fill="#f6f1cd"></path>
	<path d="m132.39,186.22h1.615c-.439,2.241.732,4.491 0,5.382-1.52-.81-1.49-3.17-1.61-5.38z" fill="#f6f1cd"></path>
	<path d="m111.4,186.75h1.615c.687,2.647 1.293,4.708.538,6.458-2.7-.17-1.33-4.41-2.16-6.46z" fill="#f6f1cd"></path>
	<path d="m40.364,187.29c9.618-.021 13.483.863 21.527,0 .384,1.991 1.237,5.631.538,6.996-7.907-.421-15.685.393-20.989-.538 .026-2.54-.945-4.08-1.076-6.46z" fill="#f6f1cd"></path>
	<path d="m303,188.37c1.388.739.119,3.298 0,4.306-1.6-.95.31-2.87 0-4.31z" fill="#f6f1cd"></path>
	<path d="m299.23,188.91h1.615c.261,2.952-.377,5.005-1.615,6.458-1.54-1.59.76-3.89.01-6.46z" fill="#f6f1cd"></path>
	<path d="m193.75,196.44c-6.124-.335-13.601.684-18.837-.539v-4.305c5.055-1.049 10.988-.543 17.761-1.615 2.01.5.7,4.32 1.08,6.46z" fill="#f6f1cd"></path>
	<path d="m297.62,189.98c.397,2.551-.605,3.7-.538,5.92-11.613,4.375-31.219,2.652-43.055,1.077v-4.844c15.63.37 30.43-.08 43.6-2.16z" fill="#f6f1cd"></path>
	<path d="m173.3,191.6c.955,1.019.393,3.555.538,5.382-5.906.484-14.515,1.173-22.604,1.076v-5.382c7.34-.08 14.66.05 22.06-1.08z" fill="#f6f1cd"></path>
	<path d="m230.34,191.6c10.52.099 12.575.453 22.065.538-.11,1.684.362,3.95-.538,4.844-10.026.302-11.782.597-21.527,0 .01-1.79.01-3.59.01-5.38z" fill="#f6f1cd"></path>
	<path d="m150.15,192.67v5.382h-8.611c16.76,3.937 31.742-2.256 49.513,0 .746,3.896-5.058,4.275-8.61,4.844-8.661,1.385-23.122,1.015-33.367.538-3.831-.179-10.542,1.959-11.84-2.691 .042-1.752 2.439-1.148 3.767-1.614-1.438-1.402-4.745-.107-6.458,0-5.42-9.19 8.95-5.98 15.61-6.46z" fill="#f6f1cd"></path>
	<path d="m113.56,193.75c.657,1.676 1.253,3.411 1.077,5.92-4.224,1.875-11.403.797-17.222,1.076 .422-2.216-.826-2.762-.538-4.844 5.84-2.17 11.4-1.49 16.68-2.16z" fill="#f6f1cd"></path>
	<path d="m31.753,194.83c13.695.737 26.846.376 41.979,1.076 .609,1.724 1.094,3.57 1.076,5.921-12.921-1.484-27.106,1.963-40.364,0-2.149-1.09-1.853-4.61-2.691-7z" fill="#f6f1cd"></path>
	<path d="m27.986,195.9c-.091-1.167 1.909-.243 2.691-.538 .486,2.046 1.77,5.489.538,7.535-1.533-1.88-1.652-5.17-3.229-7z" fill="#f6f1cd"></path>
	<path d="m95.259,195.36c-.179,2.152.959,2.987.538,5.382-6.985-.283-12.51,1.419-19.375,1.077-.341-1.991-1.46-3.204-1.077-5.921 7.216.4 13.011-.62 19.914-.54z" fill="#f6f1cd"></path>
	<path d="m298.69,196.44c1.558,1.943-.657,4.703-1.076,6.458-2.873,1.134-7.442,1.624-10.226,0v-3.229c2.64-.82 9.03-.49 11.31-3.23z" fill="#f6f1cd"></path>
	<path d="m192.13,197.52h1.614c-.479,2.725.177,4.008 0,7.534-10.351-.186-15.023.396-23.68.538 4.446-1.682 15.657-1.512 22.065-4.306 .01-1.25.01-2.51.01-3.76z" fill="#f6f1cd"></path>
	<path d="m212.58,198.06h2.153c-.338,1.636.688,4.636-.538,5.382-2.63.3-1.28-3.38-1.61-5.38z" fill="#f6f1cd"></path>
	<path d="m263.71,200.21c-.58,3.36-5.528,3.04-8.073,3.229-13.829,1.027-25.98-.225-39.825-.538v-4.844c16.86.95 33.75-.87 47.89,2.15z" fill="#f6f1cd"></path>
	<path d="m264.79,199.67c8.047.323 15.957.994 21.527,0-.11,1.685.363,3.951-.538,4.844-6.929-.965-15.367-.42-20.989-2.69v-2.15z" fill="#f6f1cd"></path>
	<path d="m112.48,201.28c.453,1.342.705,2.884.538,4.844-15.327.896-31.78.583-46.284,1.077 .506-2.31-1.667-3.557-.538-4.844 18.108,1.37 30.958-.65 46.282-1.08z" fill="#f6f1cd"></path>
	<path d="m113.56,201.28h1.615c.045,1.929.837,3.11 1.076,4.844-2.8.28-2.07-2.96-2.7-4.84z" fill="#f6f1cd"></path>
	<path d="m32.291,202.36c1.989,1.419 5.76,1.057 9.149,1.076 .582,1.571 1.205,3.101 1.076,5.382-2.091.779-4.506,1.234-7.535,1.076-1.54-1.87-3.016-3.8-2.69-7.54z" fill="#f6f1cd"></path>
	<path d="m64.582,202.9c.001,2.151 1.075,3.229 1.077,5.382-8.241,1.168-13.582,1.603-20.989,2.152-.623-2.247-1.344-4.396-1.615-6.996 7.271-.08 15.032.33 21.527-.53z" fill="#f6f1cd"></path>
	<path d="m262.1,203.98c.015-.523.658-.418 1.076-.538 5.396.523 10.237,1.603 16.146,1.614 1.15.881-4.733.655-6.997.538-3.742-.192-8.042-1.298-10.764-1.076-.84-.28-.05-.56.53-.53z" fill="#f6f1cd"></path>
	<path d="m213.12,203.98c2.462.229 4.563.818 7.535.538 2.71.37-7.66,1.68-7.54-.54z" fill="#f6f1cd"></path>
	<path d="m237.88,205.05c5.608-1.073 18.021-.732 24.757.538-6.77.48-17.39.17-24.76-.54z" fill="#f6f1cd"></path>
	<path d="m285.78,207.2c-61.287,1.824-110.76-.972-175.45,1.614-13.895.556-33.204.485-44.669,1.076 7.159-2.739 15.297-2.152 22.604-2.152 63.825,0 132.06-2.97 197.52-.54z" fill="#f6f1cd"></path>
	<path d="m30.677,1.619c-.976,1.356-3.135,1.53-3.768,3.229-1.327-1.539 1.951-3.049 3.768-3.229z" fill="#f6f1cd"></path>
	<path d="m194.28,65.663c20.324-14.671 45.48-30.136 67.812-45.746 10.49-7.331 23.59-20.091 37.68-12.917 .887,4.294-2.12,4.697-2.69,7.535-29.636,13.957-53.202,33.984-79.651,51.127-.099.458.21.508.538.538-4.58-.829-14.57-1.423-23.69-.537z" fill="#f6f1cd"></path>
	<path d="m299.77,4.848c.842-1.646 4.771,3.125 1.615,3.768 .26-2.05-.23-3.36-1.61-3.768z" fill="#f6f1cd"></path>
	<path d="m301.92,68.354c-1.145-.672 5.383-.604 5.382,1.076-1.77-.38-3.44-.865-5.38-1.076z" fill="#f6f1cd"></path>
	<path d="m24.756,68.892c-.584.865-6.195,1.328-8.611,2.153 1.632-1.957 5.581-1.596 8.611-2.153z" fill="#f6f1cd"></path>
	<path d="m318.07,82.346h-6.458c4.742.79 9.516-7.166 2.69-9.688 1.89-.91 7.76,5.653 3.77,9.688z" fill="#f6f1cd"></path>
	<path d="m318.6,73.197c.737-1.496 7.992,8.5 1.076,8.611 3-2.02 1.25-7.257-1.08-8.611z" fill="#f6f1cd"></path>
	<path d="m4.844,73.735c1.067.929-2.338,1.936-1.614,4.305 .101,1.514.936,2.293 2.69,2.153 1.355-.542-1.463-1.344-1.614-2.153 .515-1.099 1.1-2.129 1.614-3.229-.889,4.075 3.459,6.236 8.611,5.92-4.323,2.775-18.001-1.536-9.687-6.996z" fill="#f6f1cd"></path>
	<path d="m102.26,88.804c1.078-1.254 1.61-3.054 4.306-2.691 .83-1.625-2.785-1.416-2.691-.538 5.256-6.162 12.603,5.821 5.92,9.149-3.81,1.891-7.82-.844-7.54-5.92zm5.92,4.306c.744-.871 1.904-1.325 1.615-3.229-2.99-6-8.72,2.962-1.62,3.229z" fill="#f6f1cd"></path>
	<path d="m199.13,85.575c-4.506,5.702.95,17.885 9.149,13.993-2.747,3.894-10.331,7.606-15.607,10.764-4.325-3.209-7.577-7.492-9.149-13.455 4.94-4.033 10.62-7.316 15.61-11.3z" fill="#f6f1cd"></path>
	<path d="m109.79,89.881c.29,1.904-.871,2.358-1.615,3.229-7.1-.267-1.37-9.229 1.61-3.229zm-1.61-1.077c-1.917-.123-2.814.774-2.691,2.691 1.66,1.708 4.58-.838 2.69-2.691z"></path>
	<path d="m270.17,109.26c-17.984-.28-34.283,1.069-53.28,0v-6.458c16.159,1.243 37.478.195 52.742.539 .6.35.54,3.46.54,5.92z" fill="#f6f1cd"></path>
	<path d="m262.63,65.125c25.16,1.935 51.06-4.223 63.505,12.378-1.042,6.672-1.634,13.794-2.152,20.989-3.575,1.268-1.785,7.903-5.382,9.149 5.426,6.387-2.069,12.165-3.229,17.76-.637,3.071 1.766,7.878.538,11.84-.841,2.716-3.491,3.938-3.767,6.458-.518,4.726 3.682,10.718-2.153,13.992 .425,4.437.408,5.442 1.615,9.688-2.679,3.304-5.71,9.05-2.691,12.378-1.604,8.905-4.399,15.841-8.072,23.681-6.304,4.822-12.485,6.976-23.681,6.996-35.843.065-71.021-2.788-108.71-1.076-15.926.724-32.281.804-48.436.538-29.36-.482-58.419,3.609-86.109,1.076-5.694-6.863-10.775-14.34-12.378-25.294-.51-1.945 2.12-.751 3.229-1.077-.642-2.049-.124-5.257-1.614-6.458-1.943.345.146,2.581-.538,4.844-5.606-6.521-2.014-18.943-7.535-25.295-.448-7.267-1.408-14.02-3.768-19.374 3.109-6.373-2.336-11.004-1.614-18.298-6.603-4.266-2.161-11.179-3.768-18.298-.532-2.358-3.296-3.37-4.305-5.92-2.301-5.789-.545-12.404-1.63-18.846 10.929-12.673 35.27-8.944 56.509-10.764-4.818-5.255-12.439-12.542-20.989-19.374-7.72-6.17-17.384-12.743-20.989-19.913-6.165-12.263 6.393-20.789 13.455-26.909 18.751-.273 24.75,12.205 37.134,18.298 20.532,16.603 42.191,32.079 63.506,47.898 .667.017 6.37-.78 4.844.538 14.257-2.193 41.707-.636 57.047-1.076 19.67-14.308 46.994-30.378 68.888-45.746 11.758-8.253 28.338-25.182 45.745-15.607 3.884,10.387 10.249,19.451 2.153,29.062-4.458,5.292-16.086,11.157-22.604,15.607-8.53,5.818-16.48,11.28-22.08,16.147zm-235.72-60.277c.633-1.699 2.792-1.873 3.768-3.229-1.817.18-5.095,1.69-3.768,3.229zm24.218,6.458c-6.505-4.798-13.93-11.77-23.142-5.92-.587,9.829 4.986,9.804 11.302,13.993 3.466,2.298 6.787,4.711 9.149,6.458 13.297,9.833 23.587,17.036 36.597,26.909 5.044,3.828 13.786,12.511 18.298,13.455 2.432.509 8.295-1.953 10.226.538-.946.31-3.162-.65-3.229.538 5.205-.356 11.836.714 16.146-.538-23.18-17.797-51.263-37.667-75.353-55.433zm166.83,54.895c-.328-.03-.637-.081-.538-.538 26.449-17.144 50.016-37.17 79.651-51.127 .57-2.838 3.577-3.24 2.69-7.535-14.093-7.174-27.186,5.586-37.672,12.917-22.331,15.61-47.487,31.074-67.812,45.746 9.12-.887 19.11-.293 23.68.537zm83.42-57.586c3.156-.643-.773-5.414-1.615-3.768 1.39.409 1.88,1.719 1.62,3.768zm-256.17,21.528c-8.308-7.018-18.673-13.653-20.989-24.218-4.759,5.019-11.637,10.94-8.073,19.375 3.595,8.507 14.754,16.158 22.604,22.602 24.835,20.392 52.126,45.082 75.345,61.891 5.308-2.944 10.103-6.402 11.84-12.917-4.221-2.775-7.457-6.536-11.84-9.149 3.529,11.174-13.536,13.717-15.069,4.306-.883-5.425 2.888-9.253 9.149-9.688-21.099-15.557-42.193-34.649-62.972-52.199zm242.72-4.844c-27.012,19.145-60.304,39.843-86.109,58.662 9.113-2.544 15.496,6.409 10.226,13.454 20.706-12.875 46.806-33.194 67.812-47.898 7.93-5.551 16.636-9.978 23.142-15.607 2.499-2.162 5.536-6.738 5.92-9.687 .662-5.083-2.259-5.867-3.229-9.149-.658-2.224 1.028-5.118-1.615-5.382-3.56,6.24-10.24,11.418-16.15,15.607zm-197.52,40.902c3.43-.483 5.334-.036 8.073-.538-9.248-7.708-20.128-16.585-31.215-24.218-11.289-7.772-21.777-16.688-32.829-22.604 17.909,16.534 37.424,31.463 55.971,47.36zm134-4.306c-.749.575-2.762,2.107-2.153,3.229 7.402-.56 12.865-6.159 18.299-9.688 17.203-11.172 32.019-24.192 49.513-34.982 .118-.676.838-1.1-.538-1.076-20.27,14.599-45.63,27.553-65.12,42.517zm52.21,4.306c-7.85-.63-6.71,1.649 0,0zm-179.76.538c-1.636.337-4.636-.689-5.382.538 1.636-.338 4.636.689 5.382-.538zm12.917,0c-1.989.343-5.361-.697-6.458.538 1.99-.343 5.36.697 6.46-.538zm-15.608,1.615c3.423,2.619 8.097,10.172 13.455,11.84 4.229,1.316 10.266-.211 15.069,0 26.017,1.144 59.066-.742 82.88-.538 3.669-3.109 9.723-6.387 13.455-9.149 1.212-.897 3.829-2.275 2.69-3.229-39.11.829-87.19.71-127.55,1.076zm164.15-.539c-6.357,4.406-13.446,8.081-18.837,13.455 16.883-.02 41.261-.358 60.276-1.077 5.605-.211 12.925,2.26 16.146-2.691-10.56-13.081-38.04-8.161-57.59-9.687zm48.97,1.615c.001-1.68-6.526-1.749-5.382-1.076 1.94.211 3.61.696 5.38,1.076zm-245.95-.538c-19.076.109-38.659-.655-53.818,7.535 2.485,4.808 10.074,3.002 15.069,3.229 15.767.716 35.113.583 51.127.538-3.04-4.854-8.928-6.859-12.378-11.302zm-45.207,2.152c2.416-.825 8.026-1.288 8.611-2.153-3.031.558-6.98.197-8.611,2.153zm298.15,1.615c6.825,2.521 2.052,10.478-2.69,9.688h6.458c3.99-4.036-1.88-10.599-3.77-9.688zm5.38,9.149c6.916-.111-.339-10.107-1.076-8.611 2.33,1.354 4.08,6.591 1.08,8.611zm-305.15-1.077c-5.152.316-9.5-1.845-8.611-5.92-.515,1.1-1.099,2.13-1.614,3.229 .151.809 2.97,1.61 1.614,2.153-1.754.14-2.59-.639-2.69-2.153-.724-2.369 2.681-3.376 1.614-4.305-8.314,5.46 5.364,9.771 9.687,6.996zm41.978.539c1.827.146 4.363-.417 5.382.538 .56-2.088-6.834-1.039-5.382-.538zm134.01,0c-25.084,1.286-53.005-1.717-78.036,0 .441-.03-4.862.082-1.615.538 .854.12 4.676-.013 5.92,0 27.617.292 62.137.651 86.648-1.077-4.25.233-9.51-.541-12.91.539zm-187.83,8.611c-.448,11.899 13.251,9.344 23.68,9.687 26.216.862 47.432,1.092 72.655,1.077-3.046-3.548-6.822-6.494-10.764-9.688-2.883-2.335-9.839-9.268-12.917-9.149-23.033.887-49.678,1.415-73.731-.538 3.552,3.252 1.234,4.459 1.077,8.616zm49.513-8.611c-2.522.348-6.445-.704-8.073.538 2.522-.349 6.445.704 8.073-.538zm248.11.538h-10.764c-3.415.353-8.244-.709-10.764.538 6.99-.357 15.41.716 21.52-.538zm-187.83,1.614c2.024,6.061 16.757,7.944 13.993,17.222 19.829.742 40.168.913 55.971.538 1.003-.693-1.236-2.675-.538-4.844 5.748-5.015 12.842-8.686 18.836-13.455-29.48-.268-59.61.294-88.26.541zm122.17.539c-8.358,5.634-16.754,11.231-24.756,17.222 20.928-.239 36.896,1.038 59.738,0 20.695-.94 43.43,1.331 52.204-4.306 .183-1.977-3.09-.498-2.153-3.229 .799.641 2.509-1.07 2.691-2.691 .651-4.09-2.578-.98-2.691-4.305 2.118-1.022 2.653-.474 3.229-3.229-29.33,1.036-54.37.209-88.26.541zm-124.86,10.764c6.683-3.329-.664-15.312-5.92-9.149-.094-.877 3.521-1.086 2.691.538-2.695-.363-3.228,1.437-4.306,2.691-.27,5.075 3.74,7.81 7.54,5.92zm91.49-8.612c-5.82,4.297.129,16.403 6.459,11.302-7.834,3.053-10.428-9.095-5.383-9.149-2.841,4.016 1.178,9.505 5.921,7.535 .084.633-.093,1.528.538,1.614 9.14-4.651.12-16.957-7.54-11.302zm-17.76,10.764c1.572,5.963 4.824,10.245 9.149,13.455 5.276-3.157 12.86-6.87 15.607-10.764-8.199,3.892-13.655-8.291-9.149-13.993-4.99,3.986-10.67,7.269-15.61,11.304zm-175.98,7.533c1.521-.445 1.394.759 2.691.538-.335-2.356-.643-4.739-3.229-4.843-.236,1.85.212,3.01.538,4.3zm6.458,1.08c12.515,1.982 34.487.72 46.284,0 1.342-.082 5.063,1.35 5.382-1.615 .094-2.404-3.513-2.026-4.844-2.153-15.609-1.483-35.835,1.029-48.437-1.614-.391,2.71 1.477,3.17 1.615,5.37zm278.78-2.69c-.616,1.636-.353,2.511-.538,5.382 6.465-1.363 27.139,4.398 26.909-6.996-9.12.73-15.62,1.89-26.37,1.62zm-220.12-.54c-2.279.064-6.606-1.347-5.92,2.153 9.135,1.616 14.176-.791 23.142-.538-2.823-2.62-11.671-1.77-17.222-1.61zm18.298,1.61h11.302c.788,2.621-.164,6.98 2.153,8.073 .265-2.143.421-7.64-1.615-9.149-2.68.55-10.736-1.57-11.847,1.08zm61.357-.53c-9.027-.495-19.334.59-26.909,0 .297,2.573.332,5.409 1.076,7.535 22.17.077 41.615-.007 61.891-1.077-2.03-10.539-20.67-5.62-36.06-6.46zm44.13,6.99c5.621.419 9.633-.772 15.069-.538-.218-2.293.521-5.544-.538-6.997-6.28-.14-9.82,4.63-14.53,7.54zm16.68-.54c4.109,1.254 2.756-5.272 2.153-6.997h-2.153c-1.04,2.04.15,3.52 0,7zm56.51-6.45c-15.265-.343-36.583.704-52.742-.539v6.458c18.997,1.069 35.296-.28 53.28,0 0-2.46.06-5.57-.54-5.92zm1.61,0c.054,2.206.106,4.411-.538,5.92 5.75.697 15.732-.671 20.451-1.077v-4.843c-4.29-1.12-12.79.6-19.91,0zm-146.38,8.07c.027-1.149.657-6.952-1.076-8.073-.05,3.1-.08,6.17 1.08,8.07zm-74.271-4.31c.077,2.614.849,4.533 1.615,6.458 16.776.022 34.95-.968 49.513-1.614-.218-2.294.521-5.544-.538-6.997-17.939-.36-33.372,1.79-50.591,2.15zm-41.978,5.92c6.612.708 14.188.958 19.913,1.077 .82-1.488-.856-4.303-1.077-6.458-7.239.063-13.652-.699-19.913-1.614-.187,2.87.237,5.14 1.077,6.99zm97.949-1.07c5.074-.667 10.904-.577 16.684-.538-.151-1.822-.856-3.091-.538-5.382-5.078,5.456-12.144,5.456-17.222,0 .71,1.62.37,4.29 1.08,5.92zm-78.036-4.31c.492,2.02 1.219,3.805 1.614,5.92 8.756,0 12.231-.441 19.913,0 .192-2.704-.332-4.691-1.077-6.458-7.542-.04-11.949.9-20.45.54zm284.7,1.62c.167,2.14-1.243,2.704-1.076,4.844 3.059-.171 4.05-2.408 4.306-5.382-1.27-.02-1.58.92-3.23.54zm-5.38,5.92c3.094.942 3.877-5.566 2.152-5.92-1.41,1.27-1.7,3.68-2.15,5.92zm-51.13-4.31c-.788,2.389.004,3.158 0,5.92 15.417,1.567 30.946.128 49.513-1.077 .58-1.931 1.354-3.669 1.614-5.92-17.82-.43-33.01,1.78-51.12,1.08zm-86.64,1.08c.264,3.27.152,3.667.538,6.458 19.741.926 44.976.489 61.353,0 .495-1.048.948-5.209 0-7.534-19.66-.08-43.33.34-61.89,1.07zm63.5-1.08c.087,3.121-.199,5.657-.538,6.996 6.013.507 14.358-.979 22.065-.538 .517-2.922.322-3.236.538-6.458-6.39-.78-11.68.12-22.07,0zm-87.18,1.08c-.158,3.029.297,5.444 1.076,7.535 8.262-.412 12.331-.06 22.065-1.077 .141-2.831-.367-5.014-1.076-6.996-7.12.76-13.52.48-22.07.55zm-55.437,1.61c-.009,2.7.415,4.967 1.076,6.997 18.832-.38 36.104.34 53.818-1.615 .423-2.754-.755-3.909-.538-6.458-15.47-.88-34.63.77-54.357,1.08zm-82.342,2.69c.029-1.5-1.079-4.613-2.153-3.229 1.207.59.946,2.64 2.153,3.23zm59.2-1.61c-1.199,1.032 1.216,4.961-.538,6.458-1.111-2.474-.504-4.26-1.076-6.458-17.683.156-33.53-.613-48.975,1.076 .943,1.031 1.141,2.806 1.614,4.306 26.041,2.178 43.291,2.544 71.041.538 .477-1.876.469-3.87-.539-6.997-7.293.37-15.776.73-21.527,1.07zm223.35,3.76c.109,1.684-.363,3.951.538,4.844 7.96-.831 17.33-.251 24.218-2.153 .998-2.38 3.202-6.529 1.077-7.535-5.99,4.25-17.02,3.44-25.84,4.84zm-279.86,1.08c1.646-.391 1.583.928 3.229.538 .357-2.51-.848-3.458-1.077-5.382h-3.767c.404,1.75.975,3.33 1.615,4.84zm6.458.54c-.63-1.702-.983-3.681-2.153-4.844 .485,1.84.316,4.34 2.153,4.84zm199.13,0c-.469,1.556-.469,4.363 0,5.92 8.142,1.923 23.085-1.018 27.985,1.077-3.542.586-5.185.264-11.84.538 .218,2.293-.521,5.544.538,6.996 6.795-.56 13.451-1.259 20.989-1.076 .358-2.009.603-4.975 0-6.458-4.45-.62-7.468,1.594-8.61-.539 6.979-1.632 17.279.058 23.68-2.153-.395-3.343-.042-2.804-.538-5.382-14.99-1.88-36.66,1.25-52.21,1.07zm53.82-1.08c-.666.936.411,3.574 0,5.92 6.9-.028 13.784-1.007 19.375-1.615-.094-2.854-.349-2.746 0-5.382-6.05.11-11.95,1.07-19.37,1.08zm-143.16,2.69c-.264,2.417.273,4.032.539,5.92 21.101,1.243 44.204-.286 62.967-.538 .511-2.742.511-4.255 0-6.997-22.41-.15-42.5-.19-63.51,1.62zm67.27-1.61c-.981,2.108-.522,5.369.538,6.997 4.253-1.13 10.493-.271 15.607-.539 1.031-1.3.34-4.325.538-6.458h-16.69zm19.38,6.46c2.015-.497.701-4.321 1.076-6.458h-2.691c.45,2.23-1.25,6.62 1.61,6.46zm-20.99.54c-.563-1.948 1.221-6.244-1.076-6.458 .68,3-.94,4.96 1.08,6.46zm-181.37.53c5.447,1.37 12.515,1.119 19.375,1.076-.114-3.062-.351-3.112-1.077-5.92-6.282-.18-13.367-2.415-19.375-1.076 .874,1.46.694,3.97 1.077,5.92zm95.26-5.92c-.41,2.921.664,4.359.538,6.996 6.146.406 10.827-.654 16.684-.538 .009-2.7-.415-4.967-1.076-6.997-5.49.08-10.23.89-16.14.54zm19.91,6.46c-.429-2.441.312-6.053-1.614-6.997 .35,2.52-1.04,6.79 1.61,7zm-74.268-4.3c.851,1.481.93,3.734 1.614,5.382 14.401,1.021 33.514-1.253 48.437,0 1.184-1.851.349-5.508 0-7.534-18.526.11-35.06,1.41-50.048,2.15zm53.278,4.84c-.218-2.293.521-5.544-.539-6.996h-1.614c.94,2.11-.29,6.4 2.15,7zm-74.267-5.92c.031,2.301.722,3.942 1.076,5.92 5.75.935 12.213.08 19.375.538 1.133-1.659-.823-3.951-.539-6.458-6.984-.78-11.54.13-19.912,0zm276.63,8.07c2.142.348 2.164-1.424 4.306-1.077 .482-2.029.464-4.559 1.076-6.458h-3.768c-.33,2.74-1.79,4.32-1.62,7.54zm-52.2-3.76v5.92c12.851,1.41 31.298.161 46.284-1.077 .068-2.786 2.109-5.917 1.076-8.073-17.22,1.06-34.05,2.96-47.36,3.23zm48.97,4.84c2.345-2.251 1.828-4.308 2.153-8.073h-1.614c-.03,2.28-3.27,6.55-.54,8.07zm-134.01-2.69v5.92c21.979,2.639 39.757-.644 60.814-.538v-6.996c-22.32-.3-39.07.56-60.81,1.62zm-23.14,6.99h22.066c-.234-2.457.544-5.926-.539-7.535-6.461.711-15.65.969-22.065,0-.2,1.03-.27,5.82.54,7.54zm-134.01-1.07c1.231.343 3.246,1.068 4.305,0-.353-1.88-.358-2.944-1.076-5.382-1.699.264-1.901-.97-3.768-.538-.928,1.32.783,3.6.539,5.92zm78.036-4.85c.565,2.197-.266,3.797 0,6.996 14.586,1.005 35.211.016 54.356-1.076-.218-2.294.521-5.544-.538-6.997-19.95-.36-35.57.9-53.811,1.08zm-69.425,6.46c-1.259-2.149-.417-6.4-3.229-6.997-.109,1.56-.17,7.22 3.229,7zm2.152,0c12.69,2.923 30.631,1.329 43.055,1.615-.057-3.173-.599-3.622-.538-7.535-13.724-.699-31.973-.323-45.208-1.077 1.127,2.11.754,5.71 2.691,7zm43.594-5.92c.571,2.245.088,4.712 1.076,7.535 7.515-1.427 16.284.699 22.065-1.615-1.474-1.217.353-5.735-1.076-6.997-7.172.61-13.491.04-22.065,1.08zm244.87,0c-5.678,2.934-13.714,3.507-22.604,3.229-.534,1.998-1.266,5.993-.538,7.535 7.443.537 18.08-.152 23.142-3.768-.37-2.2 2.67-5.99 0-6.99zm-43.59,4.31c.532,3.32.234,4.608 0,8.073 6.884.426 11.946-.97 18.298-1.077 .876-3.154.948-5.934.538-8.073-4.53.61-12.31.87-18.84,1.08zm-52.74,1.07c.234,2.457-.544,5.926.538,7.535 17.244-.222 35.987-.181 51.128-.538v-8.073c-17.92-1.6-32.06.85-51.67,1.07zm-202.36,6.46c4.931,2.603 12.104,2.965 19.913,2.691-.564-1.768-.257-4.407-1.076-5.92-6.843-.692-14.016-1.053-19.913-2.691-.177,2.51.42,4.25 1.076,5.92zm180.29-5.38c.331,3.019-.56,5.848 0,7.535 5.879.317 10.18-.942 16.146-.538 .881-2.915.14-4.138.538-7.535-6.15-.4-10.83.66-16.69.54zm17.76,6.46h3.229v-6.997h-3.229v7zm-83.42-5.38c-.217,2.549.96,3.704.538,6.458 19.046.978 44.684-1.861 61.353,0 .777-1.734.509-4.514.538-6.997-19.76-.93-43.38-1.05-62.43.54zm62.97,6.46c2.012-.339 1.173-6.337.538-7.535-.58,1.16.68,5.61-.54,7.54zm-63.5,0c-.2-2.67.811-6.552-1.615-6.997 .17,2.69-.57,6.3 1.61,7zm-24.76-5.92c-16.034-.357-33.164.515-48.437,1.076-.018,2.351.467,4.197 1.076,5.92 17.945,2.229 31.58-.323 48.975.538-.4-3.83.81-6.3-1.61-7.54zm6.46,6.99c4.797-.943 11.51.028 16.146-1.076-.671-1.841-.182-4.841-1.076-6.458-5.437-.176-11.667,1.53-16.684,0 .06,2.99.68,5.42 1.61,7.54zm-2.69,0c1.662-1.872-.59-4.41 0-6.996h-1.614c.64,2.23-.38,6.12 1.61,7zm-72.12-.54c5.583.215 12.077.682 19.375.538-.077-2.614-.39-4.992-1.615-6.458-4.947.562-12.116.423-18.836,0 .294,2.04 1.302,3.37 1.076,5.92zm270.17,3.23c4.598.472 4.166-4.086 4.843-7.535-4.7-.56-5.29,2.97-4.84,7.54zm-49.51-3.76c-1.082,1.608-.304,5.077-.538,7.534 16.535.217 32.679-1.937 45.208-2.69-.218-2.294.521-5.544-.538-6.997-15.21.96-30.99,3-44.13,2.16zm46.82,4.84c1.91-.78.78-4.603 1.076-6.997h-1.614c.58,2.93-1.72,5.56.53,7zm-130.78-4.31c.029,2.482-.238,5.262.538,6.996 19.675,1.836 35.394.94 58.662.539 1.09-2.473.41-6.655 0-8.073-19.3.02-36.44,2.26-59.2.53zm60.81-.53v7.534c7.446.498 12.897.222 21.527,0v-7.534c-6.06-.99-14.06.61-21.53,0zm-217.96,1.07c.85,1.124 1.116,2.831 1.076,4.844 1.548.255 3.175,2.049 4.306,1.076 .192-2.704-.331-4.691-1.077-6.458-2.162.66-3.937-1.42-4.305.54zm132.93,0c.777,1.735.509,4.515.539,6.997 7.371.515 14.657-.668 22.604-.539-.218-2.293.521-5.544-.538-6.996-7.63.08-14.54.89-22.6.54zm-125.4,7c.937-.041 1.674.119 2.152.538 .087-1.693.887-8.297-3.229-7.535 .764,1.92.116,5.26 1.077,6.99zm69.963-5.38c-.397,2.551.605,3.7.539,5.921 17.297,1.221 37.287-.444 53.818-.538 .459-2.355.323-4.199 0-6.997-20.18.65-34.18,1.05-54.353,1.62zm-66.196,5.92c14.144,1.162 28.097.988 41.979,1.614 .814-1.629 1.101-6.642-.539-7.535-13.383-.104-29.653-.357-41.978-1.076 .139,2.38.86,4.17.538,7.01zm43.055-5.39c.763,1.928.115,5.266 1.076,6.996 6.652-.519 15.538-.405 21.527-1.076 3.096-12.16-15.385-3.79-22.603-5.92zm220.65,3.77c-.564,2.441-.323,3.191 0,5.92 7.269-.444 14.778-.649 19.912-3.229 .699-1.298 1.932-4.854.538-6.458-4.77,3.31-12.79,3.36-20.45,3.77zm-20.99,1.62c-.33,2.617-.33,2.765 0,5.382 7.771.299 11.163-.633 18.298-.539 .934-1.577 1.269-3.754 1.076-6.458-6.37.63-12.99,1.01-19.38,1.62zm-251.33,5.92c5.493,1.241 12.299,2.479 18.298,1.614-.44-1.713-.343-3.962-1.077-5.382-6.634-.722-13.732-.978-18.836-3.229-.648,1.61.717,5.2 1.615,7zm113.56-4.85v4.844c18.225,1.69 46.823,2.11 59.738-.538v-3.768c-21.03-2.34-39.7-.65-59.74-.53zm85.03,0c-.464,2.146.804,3.976 0,4.844 16.926,2.636 32.138,1.729 51.128-.538v-4.844c-11.27-.59-35.62-.09-51.13.54zm-105.48.54c-.096,2.607.427,4.596 1.077,6.458 5.796.415 9.945-.818 15.607-.538 .619-1.145.03-4.803-.538-6.458-6.51.21-10.9-.27-16.15.54zm19.37,5.38c.519-.381-.352-3.923 0-5.92h-1.614c.15,2.36-.56,5.58 1.61,5.92zm64.58-5.38c.146,1.827-.417,4.363.538,5.382 5.466-.507 10.274.68 15.607-.538v-5.382c-6.83-.26-9.24.73-16.15.54zm17.22,4.84c2.011.049 1.534.604 3.229,0v-5.382h-3.229v5.38zm-174.37,1.62c7.29-.134 11.734-.006 19.375,0 .304-2.456-.954-3.352-.538-5.92-6.394-.243-13.833.558-19.375-.538-1.27,1.8-.068,4.84.538,6.46zm19.913-5.38c-.371,2.164.516,3.072.538,4.844 16.506,3.38 29.081.195 48.975.538 .009-2.341.178-4.842-.538-6.458-17.872-.06-30.687,1.61-48.974,1.08zm52.744,5.38c-.644-1.509-.592-3.714-.538-5.92-.688-.029-.746-.689-1.615-.538-.09,1.05-1.19,7.1 2.15,6.46zm81.8-1.62c2.425-.246 2.171-4.909 0-4.844v4.84zm113.02,3.77c1.521.444 1.395-.759 2.691-.539-.621-2.556 1.248-4.402 0-5.92-3.79-.73-2.49,3.61-2.69,6.46zm-50.05-2.15c.199,2.134-.493,5.157.538,6.458 15.91-.942 34.379.08 44.67-3.767-.902-1.868 1.315-5.267-1.615-5.921-13.86,1.76-29.33,1.89-43.6,3.23zm47.36,3.23c.119-.42.45-.626 1.076-.538-1.209-2.124.85-4.168-.538-5.921-.113.651-.598.331-1.076,0-.67,1.2-1.3,6.07.54,6.46zm-129.7-3.23c-.213,2.545.173,4.491.538,6.458 18.291,1.814 38.39.825 57.586.538v-6.458c-21.43-1.62-37.34-.92-58.13-.54zm-151.23,7c1.401-1.786-.107-5.254-.538-6.996-.633.084-1.528-.093-1.615.538 1.422,1.45-.372,6.11 2.153,6.46zm72.117-5.39c.029,2.482-.239,5.262.538,6.997 16.738-.068 35.388-1.327 53.818-1.615 .864-1.898-.449-3.98 0-6.996-18.51.14-36.27,1.05-54.356,1.61zm55.976,5.39c6.758.405 15.163-.363 22.604-.538 .217-2.549-.961-3.703-.538-6.458h-22.065v7zm82.34-6.46v5.92c5.264.758 17.11,1.136 22.065-.538-.175-1.978.459-4.765-.538-5.92-6.14.88-13.36.2-21.52.54zm-208.28,6.46h3.229c.067-2.22-.936-3.37-.538-5.92-1.268.013-1.584-.927-3.229-.538-.674,1.2.364,4.41.538,6.46zm5.382.53c12.313,1.148 29.008-.461 37.673,2.691h-5.92c-.706,2.351 1.195,4.862 0,5.92-1.275-1.058-1.095-3.569-1.077-5.92-5.047-.862-14.856-.199-21.527-1.076 .122,3.467.963,6.213 2.691,8.072-4.216.271-7.605-.288-11.302-.538-.397,2.55.605,3.7.538,5.92 1.415,1.276 5.75-.367 5.92,2.153-4.994.329-8.909-.42-13.455-.538 .299,3.468.953,6.581 2.691,8.61 5.582.021 10.125-.997 15.069-1.614-.106-3.661-1.773-5.762-3.767-7.535 11.969,1.705 23.581.012 35.52,1.615 .217-2.549-.96-3.704-.538-6.458-10.249.022-20.323-.129-28.524-2.153 20.591,1.017 43.353.476 65.12.538-3.056,1.25-8.427.185-12.378.538-.416,2.568.841,3.464.538,5.92 17.172,1.806 33.426-.194 52.742-1.076 .835-2.135.511-4.136 0-5.92-16.5.07-27.889.104-39.826,1.076 .322-3.192-.944-4.796-.539-8.072-12.561-.882-28.475,2.35-41.44-.538 11.868.03 20.243-.07 25.833-.538-.139-2.373-.86-4.163-.539-6.997-8.38-.145-18.525.332-22.065.539 .108,1.713 1.403,5.02 0,6.458-1.456-1.056.329-5.352-1.076-6.458-11.089-1.342-27.793-1.101-41.979-1.077 .655,2.06.138,5.27 1.628,6.47zm259.94-1.07v6.458c6.757-.418 13.52-.831 18.298-3.229 .366-2.146 1.361-3.662 1.076-6.458-6.19,1.34-12.96,2.11-19.38,3.23zm-20.98,1.07v6.459c6.503-.432 13.034-.023 19.374-1.615v-5.382c-7.21-.06-14.04.07-19.37.53zm-135.09,1.08c.292,2.398.529,4.853 1.077,6.996 7.262.632 17.104-1.316 22.604,1.076h-5.92v5.382c6.513,1.067 13.647-1.245 21.527-.538 .648-1.638.27-2.165.538-4.844-5.18-1.318-9.28.566-13.993,0 7.979-2.432 21.509-1.55 32.829-2.152 .304-2.456-.953-3.352-.538-5.92-19.73-1.28-37.42-.57-58.13-.01zm83.42,0c-.947,1.812.362,2.76 0,5.382 8.753,1.867 23.494-.252 32.829,2.152-5.877.5-10.436-.077-17.76,0v5.382c6.537.346 12.15.625 20.989.538 .763-1.928.115-5.267 1.076-6.996 4.256-.229 8.684-.286 12.378-1.076 1.397-.936 1.091-3.574 1.076-5.92-13.4-.56-32.93-.14-50.6.55zm-194.82,6.46c4.767,1.364 11.328,1.302 16.146,0 .018-2.351-.467-4.197-1.076-5.92-5.565-.001-9.417-1.633-16.684-1.076 .058,2.81.558,5.18 1.614,7zm110.86,1.07c.237-1.518.782-7.449-2.153-7.534 .69,2.54-.04,6.5 2.15,7.53zm60.82-1.61c1.338-.814-.33-4.636 1.076-5.382 .901.893.428,3.159.538,4.844 .455,1.159 3.431-.202 3.768,1.076-8.61.874-17.122.548-25.295,1.076 .528,2.199-.06,2.175 0,4.844 17.915,2.029 38.492,2.195 56.51.538 .954-1.019.392-3.555.538-5.382-8.957-2.342-22.164,1.056-31.215-1.614h11.302c.833-1.103.833-4.818 0-5.92-5.049.258-11.346-.155-17.76,0-.19,1.17-1.52,4.74.53,5.91zm20.45,0c2.75.238 1.216-3.808 1.614-5.92h-3.229c.25,2.27-.82,5.85 1.62,5.92zm-102.26,2.15c1.011-1.678.625-5.783 0-7.534h-1.614c-.29,1.41-.21,6.5 1.61,7.53zm2.7-.54c5.502.345 11.572-.546 15.607,0-.029-2.482.239-5.262-.538-6.996h-16.146c-.01,2.71.41,4.97 1.08,7zm190.51,1.62c.886-1.04 2.673-6.229 0-5.92-.55,1.92-.83,4.04 0,5.92zm-4.3,1.08c3.032-.667 1.486-3.799 2.152-5.921h-1.614c-.05,3.09-.58,2.55-.54,5.92zm-46.29-2.16v5.382c15.713-.057 32.522.967 44.669-4.306 1.214-.4.211-3.019.538-4.305-14.98,1.18-30.25,2.05-45.21,3.24zm-224.96,7c-1.062-1.987.548-6.647-2.153-6.996h-1.076c.958,2.45-.808,7.63 3.229,7zm43.593-4.84c.673,1.838.387,4.636 1.615,5.92 7.054-.122 14.041-.311 20.451-1.077 1.011-2.062-.708-2.891.539-5.382-8.891.56-14.915.56-22.605.54zm215.82,3.22v5.382c5.447-.114 10.456-.667 15.069-1.614 1.129-2.101 2.938-3.521 2.691-6.996-5.69,1.31-11.85,2.15-17.76,3.23zm-153.92,2.16c.238,2.094.407,4.257 1.076,5.92 15.432.57 31.552-.904 45.208-2.153 3.442-.314 7.793,1.481 10.225-1.614v-2.691c-18.9-2.51-38.04.18-56.51.53zm81.8-.54c-.295,2.147-.295,1.621 0,3.768 1.609,1.62 7.299-.84 8.073,1.614h-11.841c.176,1.979-.459,4.765.538,5.921 5.411.332 9.376.224 15.607.538 .955-1.019.393-3.555.538-5.382-.39-1.225-3.725.495-3.229-1.615 11.74,1.009 27.956.373 38.749.538 .533-1.846-.1-3.229.538-5.382-17.55.55-32.25-2.22-48.98,0zm50.59,0v5.921c6.104-.713 13.181-.454 19.375-1.077 1.022-1.31.162-4.502 1.076-5.92-7.24.71-16.02.45-20.46,1.08zm-73.19,4.3c-.48-2.054.879-3.435 0-4.306-2.29-.07-1.93,4.22 0,4.31zm1.61,15.61c5.58-.426 10.099-.636 15.607,0 .741-7.633.309-13.044 0-19.913h-15.607c.5,8.87-1.01,13.86 0,19.91zm18.84-15.61c1.674-.119.909-2.679 1.076-4.306h-2.691c.16,1.82-.73,4.67 1.61,4.31zm-150.69-1.61c-.026,2.537.945,4.078 1.076,6.458 15.757.922 30.697.473 46.284-1.614 .264-2.417-.273-4.033-.538-5.92-15.887-.81-33.977.82-46.824,1.07zm51.124-.54c.947,6.408 1.646,13.064 3.229,18.836 11.928-.083 27.643.306 35.52-.538 4.417-.286-4.423-.935-7.534-1.076-3.141-.143-6.793.114-8.611,0-1.209-.943-.165-4.141-2.153-4.306-1.222.805 1.281,4.099 0,4.844-3.268-4.446-2.377-13.05-4.305-18.836-5.22.54-11.28.22-16.15,1.09zm19.38,4.31c.732-.891-.439-3.141 0-5.382h-1.615c.11,2.21.08,4.57 1.61,5.38zm-20.45,1.61c.755-1.75.148-3.811-.538-6.458h-1.615c.83,2.05-.54,6.29 2.16,6.46zm-72.12.54c5.304.931 13.082.117 20.989.538 .699-1.365-.154-5.005-.538-6.996-8.044.863-11.909-.021-21.527,0 .131,2.38 1.102,3.92 1.076,6.46zm261.56-1.08c.119-1.008 1.388-3.566 0-4.306 .31,1.45-1.6,3.37 0,4.31zm-3.77,2.69c1.238-1.453 1.876-3.506 1.615-6.458h-1.615c.76,2.58-1.54,4.88.01,6.46zm-106.56-5.38c-6.772,1.072-12.706.566-17.761,1.615v4.305c5.236,1.223 12.713.204 18.837.539-.38-2.14.93-5.96-1.08-6.46zm61.35,2.16v4.844c11.836,1.575 31.441,3.298 43.055-1.077-.067-2.22.936-3.369.538-5.92-13.17,2.08-27.97,2.53-43.6,2.16zm-102.79.53v5.382c8.089.097 16.697-.592 22.604-1.076-.146-1.827.417-4.363-.538-5.382-7.39,1.14-14.71,1.01-22.06,1.08zm79.11,4.31c9.745.597 11.501.302 21.527,0 .9-.894.428-3.16.538-4.844-9.49-.085-11.546-.439-22.065-.538v5.38zm-95.79,2.15c1.713-.107 5.02-1.402 6.458,0-1.328.466-3.726-.138-3.767,1.614 1.298,4.65 8.009,2.513 11.84,2.691 10.245.477 24.706.847 33.367-.538 3.553-.568 9.356-.948 8.61-4.844-17.771-2.256-32.753,3.937-49.513,0h8.611v-5.382c-6.67.48-21.04-2.73-15.61,6.46zm-37.677-3.23c-.288,2.082.96,2.628.538,4.844 5.819-.279 12.998.799 17.222-1.076 .176-2.509-.42-4.244-1.077-5.92-5.27.68-10.83,0-16.677,2.16zm-62.429,5.92c13.257,1.963 27.442-1.484 40.364,0 .018-2.351-.467-4.197-1.076-5.921-15.133-.7-28.283-.339-41.979-1.076 .838,2.4.542,5.92 2.691,7zm-3.229,1.08c1.231-2.046-.052-5.489-.538-7.535-.782.295-2.782-.629-2.691.538 1.577,1.83 1.696,5.12 3.229,7zm44.131-7c-.384,2.717.735,3.93 1.077,5.921 6.864.342 12.389-1.36 19.375-1.077 .421-2.395-.717-3.229-.538-5.382-6.904-.08-12.699.94-19.914.54zm212.04,3.77v3.229c2.783,1.624 7.353,1.134 10.226,0 .419-1.755 2.634-4.515 1.076-6.458-2.29,2.74-8.68,2.41-11.31,3.23zm-95.26,1.61c-6.408,2.794-17.619,2.624-22.065,4.306 8.656-.143 13.329-.724 23.68-.538 .177-3.526-.479-4.81 0-7.534h-1.614v3.76zm22.07,2.16c1.227-.746.2-3.746.538-5.382h-2.153c.32,2-1.03,5.68 1.61,5.38zm1.61-5.38v4.844c13.845.313 25.996,1.565 39.825.538 2.545-.189 7.493.131 8.073-3.229-14.14-3.02-31.03-1.2-47.9-2.15zm48.98,3.76c5.622,2.271 14.061,1.726 20.989,2.69 .901-.893.428-3.159.538-4.844-5.57.994-13.48.323-21.527,0v2.15zm-198.59.54c-1.129,1.287 1.044,2.534.538,4.844 14.503-.494 30.957-.181 46.284-1.077 .167-1.96-.085-3.502-.538-4.844-15.324.43-28.174,2.45-46.283,1.08zm50.053,3.77c-.239-1.733-1.031-2.915-1.076-4.844h-1.615c.63,1.87-.1,5.11 2.69,4.84zm-81.268,3.77c3.029.158 5.444-.297 7.535-1.076 .128-2.281-.495-3.811-1.076-5.382-3.389-.02-7.16.343-9.149-1.076-.327,3.74 1.149,5.67 2.69,7.54zm8.073-6.46c.271,2.6.992,4.749 1.615,6.996 7.408-.55 12.748-.984 20.989-2.152-.001-2.152-1.076-3.23-1.077-5.382-6.495.85-14.256.44-21.527.53zm218.5,1.07c2.722-.222 7.021.884 10.764,1.076 2.264.117 8.147.343 6.997-.538-5.908-.012-10.749-1.091-16.146-1.614-.418.12-1.062.015-1.076.538-.57-.03-1.36.25-.53.53zm-40.9,0c-2.972.28-5.073-.309-7.535-.538-.12,2.23 10.25.92 7.54.54zm41.97,1.08c-6.735-1.271-19.148-1.611-24.757-.538 7.38.71 18,1.02 24.76.54zm-174.37,2.15c-7.306,0-15.445-.587-22.604,2.152 11.465-.591 30.774-.521 44.669-1.076 64.689-2.586 114.16.21 175.45-1.614-65.45-2.43-133.69.54-197.52.54z"></path>
	<path d="m35.52,87.728c.874,1.441 1.236,2.046 0,3.229-1.258-.177-2.223-.647-3.229-1.076 .413-2.535 1.489-1.606 3.229-2.153z"></path>
	<path d="m157.15,89.343c.741.693.533,2.337.538,3.767-2.049.255-3.359-.229-3.767-1.615 .07-1.723 1.22-2.368 3.23-2.152z"></path>
	<path d="m210.97,102.8c1.06,1.453.32,4.703.538,6.997-5.437-.234-9.448.957-15.069.538 4.71-2.92 8.25-7.69 14.53-7.54z" fill="#f6f1cd"></path>
	<path d="m123.24,121.1c.661,2.03 1.085,4.297 1.076,6.997-5.856-.116-10.538.944-16.684.538 .126-2.637-.948-4.075-.538-6.996 5.91.34 10.65-.47 16.14-.54z" fill="#f6f1cd"></path>
	<path d="m231.42,144.78c.41,1.418 1.09,5.601 0,8.073-23.269.401-38.987,1.297-58.662-.539-.776-1.734-.509-4.514-.538-6.996 22.76,1.73 39.9-.51 59.2-.53z" fill="#f6f1cd"></path>
</g>
</svg>
