<svg width="560" height="367" xmlns="http://www.w3.org/2000/svg">
 <!-- Created with Method Draw - http://github.com/duopixel/Method-Draw/ -->

 <g>
  <title>background</title>
  <rect x="-1" y="-1" width="562" height="369" id="canvas_background" fill="none"/>
 </g>
 <g>
  <title>Layer 1</title>
  <path fill="#962727" stroke-width="0" stroke-opacity="null" d="m425.74496,200.75c-37.08716,0 -63.74496,29.12548 -63.74496,72.81905c0,38.87329 25.91992,74.18096 63.74992,74.18096c38.19151,0 64.25009,-35.29695 64.25009,-74.18096c0,-44.04209 -27.50463,-72.81905 -64.25505,-72.81905zm-0.0099,131.37563l0,0c-11.33563,0 -17.28324,-8.63791 -20.40809,-20.35352c-1.40643,-5.56022 -2.26812,-11.7156 -2.7881,-17.91388c-0.56456,-7.36716 -0.63884,-14.86836 -0.63884,-21.59747c0,-5.3243 0.08914,-10.61106 0.36646,-15.68872c0.61408,-9.26525 1.91156,-18.39645 4.40748,-25.91374c3.43684,-9.21163 9.2656,-15.13109 19.06109,-15.13109c12.38055,0 18.6352,9.55479 21.71548,23.17384c2.1245,10.15532 2.77324,22.1122 2.77324,33.64014c0,12.32686 -0.51007,27.62953 -3.77854,39.90276c-3.27342,11.46897 -9.3696,19.88168 -20.71018,19.88168l0,0z" id="svg_2" stroke="#000"/>
  <path fill="#962727" stroke="#000" stroke-width="0" stroke-opacity="null" d="m363.74497,22.75c-37.08717,0 -63.74497,29.12548 -63.74497,72.81905c0,38.87329 25.91992,74.18096 63.74992,74.18096c38.19151,0 64.25009,-35.29694 64.25009,-74.18096c0,-44.04209 -27.50463,-72.81905 -64.25505,-72.81905l0.00001,0zm-0.00991,131.37563l0,0c-11.33563,0 -17.28324,-8.63791 -20.40809,-20.35352c-1.40643,-5.56022 -2.26812,-11.7156 -2.7881,-17.91388c-0.56456,-7.36716 -0.63884,-14.86836 -0.63884,-21.59747c0,-5.3243 0.08914,-10.61106 0.36646,-15.68872c0.61408,-9.26525 1.91156,-18.39645 4.40748,-25.91374c3.43684,-9.21163 9.2656,-15.13109 19.06109,-15.13109c12.38055,0 18.6352,9.55479 21.71548,23.17384c2.1245,10.15531 2.77324,22.1122 2.77324,33.64014c0,12.32686 -0.51007,27.62953 -3.77854,39.90276c-3.27342,11.46896 -9.3696,19.88168 -20.71018,19.88168z" id="svg_3"/>
  <rect fill="#962727" stroke="#962727" stroke-width="1.5" x="385" y="23" width="11" height="338" id="svg_6" transform="rotate(30 390.5000000000003,192) " rx="8"/>
  <path id="svg_5" d="m187.777781,14.75c-68.669208,0 -118.027781,66.968777 -118.027781,167.43427c0,89.382112 47.99234,170.565726 118.03695,170.565726c70.713972,0 118.963054,-81.158957 118.963054,-170.565726c0,-101.26685 -50.92653,-167.43427 -118.972223,-167.43427zm-0.018339,302.074551l0,0c-20.988626,0 -32.001006,-19.861322 -37.786862,-46.799241c-2.604093,-12.784724 -4.199559,-26.937919 -5.16234,-41.189743c-1.045305,-16.939451 -1.182845,-34.187117 -1.182845,-49.659468c0,-12.242267 0.165048,-24.398234 0.678531,-36.073387c1.136999,-21.303764 3.539366,-42.299314 8.160715,-59.583965c6.363524,-21.180478 17.15584,-34.791216 35.2928,-34.791216c22.923357,0 34.504237,21.969507 40.207568,53.284067c3.933648,23.350306 5.134832,50.843011 5.134832,77.34943c0,28.343376 -0.944442,63.529106 -6.996209,91.749196c-6.060936,26.370805 -17.348397,45.714327 -38.346192,45.714327z" fill-opacity="null" stroke-opacity="null" stroke-width="1.5" stroke="#962727" fill="#962727"/>
 </g>
</svg>