<?xml version="1.0" encoding="UTF-8" standalone="no"?>
<svg viewBox="0 0 116.21385 162.90334" xmlns="http://www.w3.org/2000/svg">
<defs>
<filter id="filter4858">
<feGaussianBlur stdDeviation=".6355"/>
</filter>
<filter height="3.04248" id="filter3872" width="1.96749" x="-.48375" y="-1.02124">
<feGaussianBlur stdDeviation="50.2913"/>
</filter>
<filter height="1.27834" id="filter3914" width="1.1385" x="-.06925" y="-.13917">
<feGaussianBlur stdDeviation="3.995"/>
</filter>
<linearGradient gradientUnits="userSpaceOnUse" id="linearGradient4957" x1="969.5849" x2="1007.8868" y1="367.30557" y2="366.21124">
<stop offset="0" stop-color="#2b1100"/>
<stop offset="1" stop-color="#d45500"/>
</linearGradient>
<linearGradient gradientUnits="userSpaceOnUse" id="linearGradient4959" x2="0" y1="207.40262" y2="253.95787">
<stop offset="0" stop-color="#0b280b"/>
<stop offset="1" stop-color="#217821"/>
</linearGradient>
</defs>
<g transform="translate(-184.75022,-193.76766)">
<path d="m261.75054,721.87158h207.51783a20.99581,20.99581 0 0,1 20.99581,20.99581v76.19705a20.99581,20.99581 0 0,1 -20.99581,20.99581h-207.51783a20.99581,20.99581 0 0,1 -20.99581-20.99581v-76.19705a20.99581,20.99581 0 0,1 20.99581-20.99581" fill="#333" filter="url(#filter3872)" transform="matrix(.23673,0,0,.15745,156.32915,205.39598)"/>
<path d="m644.35567,700.56262c0,38.04992-30.99456,68.89547-69.22829,68.89547s-69.22829-30.84555-69.22829-68.89547" fill="#050" filter="url(#filter3914)" transform="matrix(.13112,0,0,-.08566,170.34211,391.09783)"/>
<path d="m263.88389,300.30096c.16879.004.33473.0164.49987.0352-5.30272.15277-11.57822,8.03152-14.68092,18.89382-1.23942,4.33909-1.80159,8.56077-1.7524,12.26384h-3.9081c.12894-4.2391 1.2553-9.26394 3.40823-14.33223 4.28464-10.08664 11.20081-16.9838 16.43332-16.86059z" fill="#0b280b"/>
<g transform="matrix(.23673,0,0,.27486,11.03788,157.38706)">
<path d="m989.06732,132.36218h1.86533a20.49591,20.49591 0 0,1 20.49591,20.49591v461.86534a20.49591,20.49591 0 0,1 -20.49591,20.49591h-1.86533a20.49591,20.49591 0 0,1 -20.49591-20.49591v-461.86534a20.49591,20.49591 0 0,1 20.49591-20.49591" fill="url(#linearGradient4957)"/>
<g opacity=".1">
<path d="m1386.5284,320.79614c0,70.4111-13.7187,127.49057-30.6416,127.49057s-30.6415-57.07947-30.6415-127.49057 13.7187-127.49056 30.6415-127.49056 30.6416,57.07947 30.6416,127.49056z" fill="#d45500" transform="matrix(.19643,0,0,1.00215,735.53304,42.26442)"/>
<path d="m1386.5284,320.79614c0,70.4111-13.7187,127.49057-30.6416,127.49057s-30.6415-57.07947-30.6415-127.49057 13.7187-127.49056 30.6415-127.49056 30.6416,57.07947 30.6416,127.49056z" fill="#f60" transform="matrix(.15295,0,0,.85266,794.489,90.22036)"/>
<path d="m1386.5284,320.79614c0,70.4111-13.7187,127.49057-30.6416,127.49057s-30.6415-57.07947-30.6415-127.49057 13.7187-127.49056 30.6415-127.49056 30.6416,57.07947 30.6416,127.49056z" fill="#520" transform="matrix(.12466,0,0,.69494,832.84774,140.81475)"/>
<path d="m1386.5284,320.79614c0,70.4111-13.7187,127.49057-30.6416,127.49057s-30.6415-57.07947-30.6415-127.49057 13.7187-127.49056 30.6415-127.49056 30.6416,57.07947 30.6416,127.49056z" fill="#ffb380" transform="matrix(.09444,0,0,.52647,873.82234,194.8594)"/>
</g>
<g opacity=".1">
<path d="m1386.5284,320.79614c0,70.4111-13.7187,127.49057-30.6416,127.49057s-30.6415-57.07947-30.6415-127.49057 13.7187-127.49056 30.6415-127.49056 30.6416,57.07947 30.6416,127.49056z" fill="#d45500" transform="matrix(.19643,0,0,1.00215,710.36323,176.86819)"/>
<path d="m1386.5284,320.79614c0,70.4111-13.7187,127.49057-30.6416,127.49057s-30.6415-57.07947-30.6415-127.49057 13.7187-127.49056 30.6415-127.49056 30.6416,57.07947 30.6416,127.49056z" fill="#f60" transform="matrix(.15295,0,0,.85266,769.31919,224.82413)"/>
<path d="m1386.5284,320.79614c0,70.4111-13.7187,127.49057-30.6416,127.49057s-30.6415-57.07947-30.6415-127.49057 13.7187-127.49056 30.6415-127.49056 30.6416,57.07947 30.6416,127.49056z" fill="#520" transform="matrix(.12466,0,0,.69494,807.67793,275.41852)"/>
<path d="m1386.5284,320.79614c0,70.4111-13.7187,127.49057-30.6416,127.49057s-30.6415-57.07947-30.6415-127.49057 13.7187-127.49056 30.6415-127.49056 30.6416,57.07947 30.6416,127.49056z" fill="#ffb380" transform="matrix(.09444,0,0,.52647,848.65253,329.46317)"/>
</g>
<g opacity=".1">
<path d="m1386.5284,320.79614c0,70.4111-13.7187,127.49057-30.6416,127.49057s-30.6415-57.07947-30.6415-127.49057 13.7187-127.49056 30.6415-127.49056 30.6416,57.07947 30.6416,127.49056z" fill="#d45500" transform="matrix(.19643,0,0,1.00215,719.11795,-57.32049)"/>
<path d="m1386.5284,320.79614c0,70.4111-13.7187,127.49057-30.6416,127.49057s-30.6415-57.07947-30.6415-127.49057 13.7187-127.49056 30.6415-127.49056 30.6416,57.07947 30.6416,127.49056z" fill="#f60" transform="matrix(.15295,0,0,.85266,778.07391,-9.36455)"/>
<path d="m1386.5284,320.79614c0,70.4111-13.7187,127.49057-30.6416,127.49057s-30.6415-57.07947-30.6415-127.49057 13.7187-127.49056 30.6415-127.49056 30.6416,57.07947 30.6416,127.49056z" fill="#520" transform="matrix(.12466,0,0,.69494,816.43265,41.22984)"/>
<path d="m1386.5284,320.79614c0,70.4111-13.7187,127.49057-30.6416,127.49057s-30.6415-57.07947-30.6415-127.49057 13.7187-127.49056 30.6415-127.49056 30.6416,57.07947 30.6416,127.49056z" fill="#ffb380" transform="matrix(.09444,0,0,.52647,857.40725,95.27449)"/>
</g>
<g opacity=".1">
<path d="m1386.5284,320.79614c0,70.4111-13.7187,127.49057-30.6416,127.49057s-30.6415-57.07947-30.6415-127.49057 13.7187-127.49056 30.6415-127.49056 30.6416,57.07947 30.6416,127.49056z" fill="#d45500" transform="matrix(.19643,0,0,.54292,735.53304,368.50736)"/>
<path d="m1386.5284,320.79614c0,70.4111-13.7187,127.49057-30.6416,127.49057s-30.6415-57.07947-30.6415-127.49057 13.7187-127.49056 30.6415-127.49056 30.6416,57.07947 30.6416,127.49056z" fill="#f60" transform="matrix(.15295,0,0,.46193,794.489,394.48777)"/>
<path d="m1386.5284,320.79614c0,70.4111-13.7187,127.49057-30.6416,127.49057s-30.6415-57.07947-30.6415-127.49057 13.7187-127.49056 30.6415-127.49056 30.6416,57.07947 30.6416,127.49056z" fill="#520" transform="matrix(.12466,0,0,.37649,832.84774,421.89758)"/>
<path d="m1386.5284,320.79614c0,70.4111-13.7187,127.49057-30.6416,127.49057s-30.6415-57.07947-30.6415-127.49057 13.7187-127.49056 30.6415-127.49056 30.6416,57.07947 30.6416,127.49056z" fill="#ffb380" transform="matrix(.09444,0,0,.28522,873.82234,451.17659)"/>
</g>
</g>
<path d="m203.82915,206.19644h86.92992a4.14199,4.14199 0 0,1 4.14199,4.14199v39.06253a4.14199,4.14199 0 0,1 -4.14199,4.14199h-86.92992a4.14199,4.14199 0 0,1 -4.14199-4.14199v-39.06253a4.14199,4.14199 0 0,1 4.14199-4.14199" fill="url(#linearGradient4959)"/>
<path d="m222.79797,298.88272c-.1688.004-.33474.0164-.49988.0352 5.30272.15276 11.57822,8.03151 14.68092,18.89382 1.23942,4.33908 1.80159,8.56077 1.7524,12.26384h3.9081c-.12893-4.2391-1.2553-9.26394-3.40823-14.33223-4.28463-10.08665-11.20081-16.9838-16.43331-16.86059z" fill="#0b280b"/>
<path d="m222.95555,310.22812c-.16879.003-.33473.0109-.49987.0233 5.30271.10106 11.57821,5.31318 14.68091,12.49904 1.23943,2.87048 1.80159,5.6633 1.7524,8.11304h3.9081c-.12893-2.80434-1.2553-6.12848-3.40822-9.48136-4.28464-6.67273-11.20082-11.23549-16.43332-11.15398z" fill="#050"/>
<path d="m228.62637,311.64637c-.16879.003-.33473.0109-.49987.0233 5.30271.10106 11.57822,5.31317 14.68092,12.49903 1.23942,2.87049 1.80158,5.66331 1.7524,8.11304h3.90809c-.12893-2.80434-1.25529-6.12848-3.40822-9.48136-4.28464-6.67273-11.20081-11.23548-16.43332-11.15397z" fill="#002b00"/>
<path d="m268.45378,299.82822c.16879.004.33473.0164.49987.0352-5.30271.15276-11.57821,8.03151-14.68091,18.89381-1.23942,4.33909-1.80159,8.56078-1.7524,12.26385h-3.9081c.12893-4.2391 1.2553-9.26395 3.40822-14.33223 4.28464-10.08665 11.20082-16.98381 16.43332-16.86059z" fill="#050"/>
<path d="m267.19312,314.64029c.16879.002.33473.009.49987.0202-5.30271.0879-11.57821,4.62345-14.68091,10.87648-1.23942,2.49786-1.80159,4.92813-1.7524,7.05985h-3.9081c.12893-2.44029 1.2553-5.33291 3.40822-8.25054 4.28464-5.80651 11.20082-9.77696 16.43332-9.70603z" fill="#008000"/>
<path d="m225.31714,314.16754c-.1688.002-.33474.009-.49988.0202 5.30272.0879 11.57822,4.62345 14.68092,10.87648 1.23942,2.49786 1.80159,4.92813 1.7524,7.05985h3.9081c-.12893-2.44029-1.2553-5.33291-3.40823-8.25054-4.28463-5.80651-11.20081-9.77696-16.43331-9.70603z" fill="#165016"/>
<path d="m234.59664,327.08864-.16684.005c1.76988.0239 3.86444,1.25596 4.90002,2.95459 .41368.67854.60131,1.33872.5849,1.9178h1.30439c-.043-.6629-.41898-1.44868-1.13755-2.24125-1.43008-1.57734-3.73847-2.65591-5.48492-2.63664z" fill="#1f241c"/>
<path d="m249.24657,327.24622 .16684.005c-1.76988.0239-3.86444,1.25596-4.90002,2.95459-.41368.67854-.60131,1.33872-.58489,1.91781h-1.3044c.043-.66291.41898-1.44869 1.13756-2.24126 1.43007-1.57734 3.73847-2.6559 5.48491-2.63664z" fill="#008000"/>
<path d="m644.35567,700.56262c0,38.04992-30.99456,68.89547-69.22829,68.89547s-69.22829-30.84555-69.22829-68.89547" fill="#050" filter="url(#filter3914)" transform="matrix(.13112,0,0,.08566,170.34211,270.85412)"/>
<g transform="matrix(.23673,0,0,.23673,162.54673,147.13047)">
<path d="m123.43315,231.60262c0,6.66031-3.97004,12.05956-8.86732,12.05956s-8.86733-5.39925-8.86733-12.05956 3.97004-12.05957 8.86733-12.05957 8.86732,5.39925 8.86732,12.05957z" fill="#b3b3b3" transform="matrix(.4,0,0,.29412,288.12012,190.96903)"/>
<path d="m333.91466,256.13766h.05154a.20293,.20293 0 0,1 .20293.20293v5.35726a.20293,.20293 0 0,1 -.20293.20293h-.05154a.20293,.20293 0 0,1 -.20293-.20293v-5.35726a.20293,.20293 0 0,1 .20293-.20293" fill="#fff"/>
<path d="m258.99346-336.82199h.05154a.20293,.20293 0 0,1 .20293.20293v5.35726a.20293,.20293 0 0,1 -.20293.20293h-.05154a.20293,.20293 0 0,1 -.20293-.20293v-5.35726a.20293,.20293 0 0,1 .20293-.20293" fill="#fff" transform="matrix(0,1,-1,0,0,0)"/>
</g>
<g transform="matrix(.23673,0,0,.23673,170.40779,147.00054)">
<path d="m123.43315,231.60262c0,6.66031-3.97004,12.05956-8.86732,12.05956s-8.86733-5.39925-8.86733-12.05956 3.97004-12.05957 8.86733-12.05957 8.86732,5.39925 8.86732,12.05957z" fill="#b3b3b3" transform="matrix(.4,0,0,.29412,288.12012,190.96903)"/>
<path d="m333.91466,256.13766h.05154a.20293,.20293 0 0,1 .20293.20293v5.35726a.20293,.20293 0 0,1 -.20293.20293h-.05154a.20293,.20293 0 0,1 -.20293-.20293v-5.35726a.20293,.20293 0 0,1 .20293-.20293" fill="#fff"/>
<path d="m258.99346-336.82199h.05154a.20293,.20293 0 0,1 .20293.20293v5.35726a.20293,.20293 0 0,1 -.20293.20293h-.05154a.20293,.20293 0 0,1 -.20293-.20293v-5.35726a.20293,.20293 0 0,1 .20293-.20293" fill="#fff" transform="matrix(0,1,-1,0,0,0)"/>
</g>
<g transform="matrix(.23673,0,0,.23673,162.43845,188.92621)">
<path d="m123.43315,231.60262c0,6.66031-3.97004,12.05956-8.86732,12.05956s-8.86733-5.39925-8.86733-12.05956 3.97004-12.05957 8.86733-12.05957 8.86732,5.39925 8.86732,12.05957z" fill="#b3b3b3" transform="matrix(.4,0,0,.29412,288.12012,190.96903)"/>
<path d="m333.91466,256.13766h.05154a.20293,.20293 0 0,1 .20293.20293v5.35726a.20293,.20293 0 0,1 -.20293.20293h-.05154a.20293,.20293 0 0,1 -.20293-.20293v-5.35726a.20293,.20293 0 0,1 .20293-.20293" fill="#fff"/>
<path d="m258.99346-336.82199h.05154a.20293,.20293 0 0,1 .20293.20293v5.35726a.20293,.20293 0 0,1 -.20293.20293h-.05154a.20293,.20293 0 0,1 -.20293-.20293v-5.35726a.20293,.20293 0 0,1 .20293-.20293" fill="#fff" transform="matrix(0,1,-1,0,0,0)"/>
</g>
<g transform="matrix(.23673,0,0,.23673,170.23455,188.75296)">
<path d="m123.43315,231.60262c0,6.66031-3.97004,12.05956-8.86732,12.05956s-8.86733-5.39925-8.86733-12.05956 3.97004-12.05957 8.86733-12.05957 8.86732,5.39925 8.86732,12.05957z" fill="#b3b3b3" transform="matrix(.4,0,0,.29412,288.12012,190.96903)"/>
<path d="m333.91466,256.13766h.05154a.20293,.20293 0 0,1 .20293.20293v5.35726a.20293,.20293 0 0,1 -.20293.20293h-.05154a.20293,.20293 0 0,1 -.20293-.20293v-5.35726a.20293,.20293 0 0,1 .20293-.20293" fill="#fff"/>
<path d="m258.99346-336.82199h.05154a.20293,.20293 0 0,1 .20293.20293v5.35726a.20293,.20293 0 0,1 -.20293.20293h-.05154a.20293,.20293 0 0,1 -.20293-.20293v-5.35726a.20293,.20293 0 0,1 .20293-.20293" fill="#fff" transform="matrix(0,1,-1,0,0,0)"/>
</g>
<g filter="url(#filter4858)" font-family="Sans" font-size="34.1627" letter-spacing="0" transform="matrix(1.02933,0,0,.97151,.51111,.51842)" word-spacing="0">
<path d="m219.29335,223.61931c.0667-.0556.25577-.30579.56716-.75064 .20016-.28911.46706-.43368.80069-.43371 .0778,3e-005 .38921.0389.93413.11677 .1112.11123.1946.34477.25022.7006l.90077,5.65486c.0445.30027.0667.47821.0667.53379-1e-005,.21131-.0584.35032-.17515.41702s-.42537.10011-.92579.10009c-.56717,2e-005-.93415-.0723-1.10095-.21685s-.48375-.74507-.95081-1.80155c-.98975-2.23523-1.87384-3.35286-2.65228-3.35288-.55604,2e-005-.83406.38925-.83405,1.16767-1e-005,.96752.8396,2.86915 2.51883,5.7049 1.92386,3.26949 3.17772,5.63541 3.76156,7.09776s.87574,3.09989.87575,4.91255c-1e-005,2.14629-.506,3.79215-1.51797,4.93758s-2.15185,1.71814-3.4196,1.71814c-.80069,0-1.57358-.22798-2.31866-.68392-.28914-.17793-.51711-.2669-.68392-.2669-.14457,0-.26134.10565-.3503.31694-.17793.42258-.61164.63388-1.30112.63388-.26689,0-.4476-.0417-.54213-.12511s-.16403-.30304-.20851-.6589l-.83405-5.55477c-.11121-.71171-.16681-1.08982-.16681-1.13431 0-.32249.2947-.48374.88409-.48375 .80069,1e-005 1.27332.10566 1.41789.31694s.35029.69505.61719,1.45125c.97862,2.70232 1.9628,4.05348 2.95254,4.05348 .36697,0 .66445-.13345.89243-.40034s.34195-.60052.34196-1.00086c-1e-005-.7006-.253-1.53187-.75898-2.49381s-1.12598-2.03229-1.85993-3.21109c-1.75707-2.82464-2.9998-5.07935-3.7282-6.76414s-1.09261-3.40569-1.09261-5.16277c0-1.97946.43371-3.55859 1.30112-4.7374s1.92943-1.76816 3.18607-1.76819c.8674,3e-005 1.9183.38925 3.1527,1.16767z"/>
<path d="m232.27117,244.07021h-4.17025l-.18349,1.53465c-1e-005,.0334-.0111.0834-.0334.15013-.089.3225-.13346.61164-.13345.86741-1e-005,.40035.26133.73953.784,1.01754 .27802.14457.45039.2947.51711.45039s.10008.41146.10009.76732c-1e-005,.45595-.025.73119-.0751.82571s-.1696.14179-.35865.14179h-4.40378c-.24465,0-.36698-.25578-.36698-.76733 0-.61163.19461-1.1065.58384-1.4846 .36698-.34474.57827-.71172.63387-1.10095l3.08599-19.63353c.0556-.30023.0834-.56157.0834-.784 0-.34472-.2391-.65054-.71728-.91746-.22242-.13342-.33362-.42812-.33362-.88409 0-.61161.0334-.98971.10009-1.13431s.24465-.21682.53379-.21685h6.37214c.38921,3e-005 .66166.18352.81736.55047s.31137,1.1677.46707,2.40207c.0667.47821.13344.95083.20017,1.41788l2.73569,18.33241c.13343.88965.46149,1.56801.98417,2.03508 .14456.12233.23908.21963.28358.29192s.0667.29192.0667.6589c-2e-005,.56715-.0389.91467-.11677,1.04256s-.24467.19183-.50043.19183h-7.42304c-.22242,0-.33363-.21129-.33362-.63388-1e-005-.53379.0278-.86741.0834-1.00086s.21685-.28913.48375-.46707c.38922-.24465.58383-.55603.58384-.93413-1e-005-.38922-.11678-1.29555-.3503-2.719zm-2.00172-14.87945-1.85159,12.96113h3.66981z"/>
<path d="m248.21819,247.9402h.95082c.4893,0 .85072-.19461 1.08426-.58384s.53935-1.28999.91746-2.70232c.13344-.5449.29469-.87574.48375-.99252s.51154-.17514.9675-.17515c.50041,1e-005 .82291.0417.96749.12511s.21684.23632.21686.45873c-2e-005,.15569-.0278.40591-.0834.75064l-.58383,3.98676c-.0667.41146-.15293.68392-.25856.81737s-.31973.20017-.64222.20017h-10.97609c-.46707,0-.7006-.28914-.7006-.86741 0-.44483.0306-.73118.0917-.85907s.19184-.22519.39201-.29192c.63387-.20017.95081-.784.95081-1.7515v-19.81702c0-.41144-.20017-.70614-.60051-.88409-.34474-.14455-.55604-.3058-.63388-.48375s-.11677-.47261-.11677-.8841c0-.48928.0334-.79232.10009-.90911s.24465-.17512.53379-.17515h7.68994c.28913,3e-005 .48652.0695.59217.20851s.15846.51436.15847,1.12597c-1e-005,.36701-.0361.61444-.10842.7423s-.25857.2419-.55882.34196c-.55604.18908-.83405.55606-.83405,1.10095z"/>
<path d="m262.1635,224.95379v9.52485h1.13431c.31137,1e-005 .53934-.0667.68392-.20017s.25576-.42257.33362-.86742c.13344-.78955.24186-1.26217.32528-1.41788s.21406-.23352.392-.23353c.87852,1e-005 1.37617.0362 1.49295.10842s.17514.3531.17515.84239v5.55477c-1e-005,.34475-.0556.56995-.16681.67558s-.45596.15848-1.03422.15847c-.37811,1e-005-.63111-.0695-.75899-.20851s-.253-.531-.37532-1.17601c-.12233-.58938-.24188-.9508-.35864-1.08426s-.29749-.20016-.54213-.20018h-1.30112v11.49321h.88409c.54491,0 .92023-.15291 1.12597-.45873s.53656-1.18713.99252-2.64394c.18904-.61163.38365-1.01197.58383-1.20103s.55047-.28357 1.05091-.28358c.68946,1e-005 1.03421.22242 1.03422.66724-1e-005,.13346-.0223.32807-.0667.58384l-.61719,3.78658c-.11122.68949-.20297,1.10373-.27524,1.24274s-.29749.20851-.67558.20851h-11.12622c-.27802,0-.45595-.0639-.53379-.19183s-.11677-.49765-.11677-1.10929c0-.38922.20017-.6728.60052-.85073 .61163-.25577.91745-.60607.91745-1.0509v-20.8012c-.0111-.21127-.26134-.42256-.75064-.63387-.33362-.14455-.53101-.28356-.59218-.41703s-.0917-.45592-.0917-.9675c0-.43368.0334-.69223.10008-.77566s.26134-.12508.58384-.12511h10.64247c.26688,3e-005 .4615.0445.58383.13345s.21684.30028.28358.63388l.85073,4.30369c.0445.22244.0667.37256.0667.45039-2e-005,.30028-.26691.45041-.80069.45038-.60053,3e-005-1.00087-.0695-1.20103-.20851s-.3948-.48651-.58384-1.04256c-.34475-1.00084-.64223-1.69588-.89243-2.08512s-.53102-.58381-.84239-.58384z"/>
</g>
<g fill="#dee3db" font-family="Sans" font-size="34.1627" letter-spacing="0" transform="matrix(1.02933,0,0,.97151,.51111,.51842)" word-spacing="0">
<path d="m219.29335,223.61931c.0667-.0556.25577-.30579.56716-.75064 .20016-.28911.46706-.43368.80069-.43371 .0778,3e-005 .38921.0389.93413.11677 .1112.11123.1946.34477.25022.7006l.90077,5.65486c.0445.30027.0667.47821.0667.53379-1e-005,.21131-.0584.35032-.17515.41702s-.42537.10011-.92579.10009c-.56717,2e-005-.93415-.0723-1.10095-.21685s-.48375-.74507-.95081-1.80155c-.98975-2.23523-1.87384-3.35286-2.65228-3.35288-.55604,2e-005-.83406.38925-.83405,1.16767-1e-005,.96752.8396,2.86915 2.51883,5.7049 1.92386,3.26949 3.17772,5.63541 3.76156,7.09776s.87574,3.09989.87575,4.91255c-1e-005,2.14629-.506,3.79215-1.51797,4.93758s-2.15185,1.71814-3.4196,1.71814c-.80069,0-1.57358-.22798-2.31866-.68392-.28914-.17793-.51711-.2669-.68392-.2669-.14457,0-.26134.10565-.3503.31694-.17793.42258-.61164.63388-1.30112.63388-.26689,0-.4476-.0417-.54213-.12511s-.16403-.30304-.20851-.6589l-.83405-5.55477c-.11121-.71171-.16681-1.08982-.16681-1.13431 0-.32249.2947-.48374.88409-.48375 .80069,1e-005 1.27332.10566 1.41789.31694s.35029.69505.61719,1.45125c.97862,2.70232 1.9628,4.05348 2.95254,4.05348 .36697,0 .66445-.13345.89243-.40034s.34195-.60052.34196-1.00086c-1e-005-.7006-.253-1.53187-.75898-2.49381s-1.12598-2.03229-1.85993-3.21109c-1.75707-2.82464-2.9998-5.07935-3.7282-6.76414s-1.09261-3.40569-1.09261-5.16277c0-1.97946.43371-3.55859 1.30112-4.7374s1.92943-1.76816 3.18607-1.76819c.8674,3e-005 1.9183.38925 3.1527,1.16767z" fill="#dee3db"/>
<path d="m232.27117,244.07021h-4.17025l-.18349,1.53465c-1e-005,.0334-.0111.0834-.0334.15013-.089.3225-.13346.61164-.13345.86741-1e-005,.40035.26133.73953.784,1.01754 .27802.14457.45039.2947.51711.45039s.10008.41146.10009.76732c-1e-005,.45595-.025.73119-.0751.82571s-.1696.14179-.35865.14179h-4.40378c-.24465,0-.36698-.25578-.36698-.76733 0-.61163.19461-1.1065.58384-1.4846 .36698-.34474.57827-.71172.63387-1.10095l3.08599-19.63353c.0556-.30023.0834-.56157.0834-.784 0-.34472-.2391-.65054-.71728-.91746-.22242-.13342-.33362-.42812-.33362-.88409 0-.61161.0334-.98971.10009-1.13431s.24465-.21682.53379-.21685h6.37214c.38921,3e-005 .66166.18352.81736.55047s.31137,1.1677.46707,2.40207c.0667.47821.13344.95083.20017,1.41788l2.73569,18.33241c.13343.88965.46149,1.56801.98417,2.03508 .14456.12233.23908.21963.28358.29192s.0667.29192.0667.6589c-2e-005,.56715-.0389.91467-.11677,1.04256s-.24467.19183-.50043.19183h-7.42304c-.22242,0-.33363-.21129-.33362-.63388-1e-005-.53379.0278-.86741.0834-1.00086s.21685-.28913.48375-.46707c.38922-.24465.58383-.55603.58384-.93413-1e-005-.38922-.11678-1.29555-.3503-2.719zm-2.00172-14.87945-1.85159,12.96113h3.66981z" fill="#dee3db"/>
<path d="m248.21819,247.9402h.95082c.4893,0 .85072-.19461 1.08426-.58384s.53935-1.28999.91746-2.70232c.13344-.5449.29469-.87574.48375-.99252s.51154-.17514.9675-.17515c.50041,1e-005 .82291.0417.96749.12511s.21684.23632.21686.45873c-2e-005,.15569-.0278.40591-.0834.75064l-.58383,3.98676c-.0667.41146-.15293.68392-.25856.81737s-.31973.20017-.64222.20017h-10.97609c-.46707,0-.7006-.28914-.7006-.86741 0-.44483.0306-.73118.0917-.85907s.19184-.22519.39201-.29192c.63387-.20017.95081-.784.95081-1.7515v-19.81702c0-.41144-.20017-.70614-.60051-.88409-.34474-.14455-.55604-.3058-.63388-.48375s-.11677-.47261-.11677-.8841c0-.48928.0334-.79232.10009-.90911s.24465-.17512.53379-.17515h7.68994c.28913,3e-005 .48652.0695.59217.20851s.15846.51436.15847,1.12597c-1e-005,.36701-.0361.61444-.10842.7423s-.25857.2419-.55882.34196c-.55604.18908-.83405.55606-.83405,1.10095z" fill="#dee3db"/>
<path d="m262.1635,224.95379v9.52485h1.13431c.31137,1e-005 .53934-.0667.68392-.20017s.25576-.42257.33362-.86742c.13344-.78955.24186-1.26217.32528-1.41788s.21406-.23352.392-.23353c.87852,1e-005 1.37617.0362 1.49295.10842s.17514.3531.17515.84239v5.55477c-1e-005,.34475-.0556.56995-.16681.67558s-.45596.15848-1.03422.15847c-.37811,1e-005-.63111-.0695-.75899-.20851s-.253-.531-.37532-1.17601c-.12233-.58938-.24188-.9508-.35864-1.08426s-.29749-.20016-.54213-.20018h-1.30112v11.49321h.88409c.54491,0 .92023-.15291 1.12597-.45873s.53656-1.18713.99252-2.64394c.18904-.61163.38365-1.01197.58383-1.20103s.55047-.28357 1.05091-.28358c.68946,1e-005 1.03421.22242 1.03422.66724-1e-005,.13346-.0223.32807-.0667.58384l-.61719,3.78658c-.11122.68949-.20297,1.10373-.27524,1.24274s-.29749.20851-.67558.20851h-11.12622c-.27802,0-.45595-.0639-.53379-.19183s-.11677-.49765-.11677-1.10929c0-.38922.20017-.6728.60052-.85073 .61163-.25577.91745-.60607.91745-1.0509v-20.8012c-.0111-.21127-.26134-.42256-.75064-.63387-.33362-.14455-.53101-.28356-.59218-.41703s-.0917-.45592-.0917-.9675c0-.43368.0334-.69223.10008-.77566s.26134-.12508.58384-.12511h10.64247c.26688,3e-005 .4615.0445.58383.13345s.21684.30028.28358.63388l.85073,4.30369c.0445.22244.0667.37256.0667.45039-2e-005,.30028-.26691.45041-.80069.45038-.60053,3e-005-1.00087-.0695-1.20103-.20851s-.3948-.48651-.58384-1.04256c-.34475-1.00084-.64223-1.69588-.89243-2.08512s-.53102-.58381-.84239-.58384z" fill="#dee3db"/>
</g>
<path d="m210.90038,213.60486h73.07794a3.81403,3.81403 0 0,1 3.81403,3.81403v25.78953a3.81403,3.81403 0 0,1 -3.81403,3.81403h-73.07794a3.81403,3.81403 0 0,1 -3.81403-3.81403v-25.78953a3.81403,3.81403 0 0,1 3.81403-3.81403" fill="none" stroke="#008000" stroke-width=".94089"/>
</g>
</svg>
